<svg width="169" height="108" viewBox="0 0 169 108" fill="none" xmlns="http://www.w3.org/2000/svg">
<g filter="url(#filter0_d_1040_12949)">
<g clip-path="url(#clip0_1040_12949)">
<g filter="url(#filter1_d_1040_12949)">
<rect x="4.53094" y="1.69913" width="161.416" height="100.814" fill="url(#paint0_linear_1040_12949)"/>
<rect x="4.53094" y="1.69913" width="161.416" height="100.814" fill="#E81F00"/>
</g>
<mask id="mask0_1040_12949" style="mask-type:luminance" maskUnits="userSpaceOnUse" x="4" y="1" width="162" height="102">
<rect x="4.53094" y="1.69913" width="161.416" height="100.814" rx="6.79646" fill="white"/>
<rect x="4.53094" y="1.69913" width="161.416" height="100.814" rx="6.79646" stroke="white"/>
</mask>
<g mask="url(#mask0_1040_12949)">
<g opacity="0.3" filter="url(#filter2_f_1040_12949)">
<ellipse cx="134.471" cy="33.0046" rx="57.8407" ry="57.0396" fill="url(#paint1_radial_1040_12949)"/>
</g>
</g>
<g opacity="0.1">
<mask id="mask1_1040_12949" style="mask-type:luminance" maskUnits="userSpaceOnUse" x="4" y="70" width="162" height="33">
<rect x="4.53094" y="70.1466" width="161" height="32.5525" fill="white"/>
</mask>
<g mask="url(#mask1_1040_12949)">
<path fill-rule="evenodd" clip-rule="evenodd" d="M4.53094 92.9448C4.53094 86.1232 9.33586 81.9301 17.0188 81.9301H24.9734V71.9292H34.9291V103.346H16.9817C9.33586 103.346 4.53094 99.3158 4.53094 92.9448ZM15.0549 92.5943C15.0549 95.2103 16.6236 96.5746 19.6374 96.5746H24.9735V88.5639H19.6869C16.673 88.5639 15.0549 89.9408 15.0549 92.5943ZM99.2954 92.5693C99.2954 99.3909 94.4904 103.584 86.8075 103.584H78.8529V113.585H68.8972V82.1679H86.8446C94.4904 82.1679 99.2954 86.1983 99.2954 92.5693ZM88.7589 92.9197C88.7589 90.3037 87.1902 88.9394 84.1763 88.9394H78.8526V96.9501H84.1393C87.1532 96.9501 88.7589 95.5732 88.7589 92.9197ZM164.489 92.5693C164.489 99.3909 159.684 103.584 152.001 103.584H144.046V113.585H134.091V82.1679H152.038C159.684 82.1679 164.489 86.1983 164.489 92.5693ZM153.953 92.9197C153.953 90.3037 152.384 88.9394 149.37 88.9394H144.046V96.9501H149.333C152.347 96.9501 153.953 95.5732 153.953 92.9197ZM102.198 92.6819C102.198 85.0717 108.226 81.0038 116.526 81.0038C124.827 81.0038 130.855 85.0717 130.855 92.6819C130.855 100.292 124.827 104.46 116.526 104.46C108.226 104.448 102.198 100.292 102.198 92.6819ZM121.146 92.682C121.146 88.9645 119.305 87.0995 116.514 87.0995C113.722 87.0995 111.882 88.9645 111.882 92.682C111.882 96.3493 113.722 98.352 116.514 98.352C119.318 98.3395 121.146 96.3493 121.146 92.682ZM65.6486 93.2076C65.6486 85.5975 60.7943 80.9913 52.0244 80.9913C43.6003 80.9913 38.1778 85.5975 38.1778 92.8071C38.1778 100.104 43.5509 104.448 52.5061 104.448C58.1386 104.448 62.6841 102.32 65.0804 98.8652L57.9409 96.2367C56.7057 97.601 54.8406 98.352 52.8766 98.352C49.9245 98.352 47.8741 97.1504 47.343 95.1102C47.3059 94.9725 47.2812 94.8473 47.2565 94.6971V94.6971V94.6971H47.3059H65.6486V93.2076ZM47.2563 89.9783C47.491 87.475 49.1832 85.9354 52.123 85.9354C55.0628 85.9354 56.755 87.5626 56.755 89.9783H47.2563Z" fill="white"/>
</g>
</g>
<rect x="14.1592" y="62.9711" width="142.726" height="0.283186" fill="#C8C7CC"/>
<path d="M19.1292 73.4571C19.1292 74.348 18.3634 74.9223 17.0307 74.9517V75.5702H16.589V74.9444C15.3962 74.8634 14.6305 74.348 14.3949 73.3834L15.109 73.2436C15.3226 73.9209 15.8159 74.2743 16.589 74.3553V72.441L16.2503 72.4042C15.1532 72.2275 14.6378 71.771 14.6378 70.939C14.6378 70.1364 15.3815 69.6063 16.589 69.5548V68.9289H17.0307V69.5621C18.1352 69.621 18.7978 70.0628 19.0334 70.9316L18.334 71.1304C18.1499 70.5267 17.767 70.1953 17.0307 70.1291V71.8593L17.3915 71.9035C18.5769 72.095 19.1292 72.5441 19.1292 73.4571ZM16.5669 71.8004H16.589V70.1143C15.7864 70.1438 15.3667 70.4089 15.3667 70.9243C15.3667 71.4102 15.7054 71.6605 16.5669 71.8004ZM17.0307 74.3701C17.9437 74.3553 18.4076 74.0535 18.4076 73.4571C18.4076 72.9049 18.0468 72.6545 17.1338 72.5073L17.0307 72.4925V74.3701ZM22.1824 74.9444C20.7098 74.9444 19.8631 73.862 19.8631 72.2496C19.8631 70.6224 20.7098 69.5474 22.1824 69.5474C23.6549 69.5474 24.5017 70.6224 24.5017 72.2496C24.5017 73.862 23.6549 74.9444 22.1824 74.9444ZM22.1824 74.3774C23.2426 74.3774 23.8169 73.5381 23.8169 72.2496C23.8169 70.9463 23.2426 70.1143 22.1824 70.1143C21.1295 70.1143 20.5552 70.9463 20.5552 72.2496C20.5552 73.5381 21.1295 74.3774 22.1824 74.3774ZM27.611 74.9444C26.1385 74.9444 25.2917 73.862 25.2917 72.2496C25.2917 70.6224 26.1385 69.5474 27.611 69.5474C29.0836 69.5474 29.9303 70.6224 29.9303 72.2496C29.9303 73.862 29.0836 74.9444 27.611 74.9444ZM27.611 74.3774C28.6713 74.3774 29.2456 73.5381 29.2456 72.2496C29.2456 70.9463 28.6713 70.1143 27.611 70.1143C26.5581 70.1143 25.9838 70.9463 25.9838 72.2496C25.9838 73.5381 26.5581 74.3774 27.611 74.3774ZM31.6675 73.9357V74.8045H30.7324V73.9357H31.6675ZM34.7725 74.9444C33.3 74.9444 32.4532 73.862 32.4532 72.2496C32.4532 70.6224 33.3 69.5474 34.7725 69.5474C36.2451 69.5474 37.0918 70.6224 37.0918 72.2496C37.0918 73.862 36.2451 74.9444 34.7725 74.9444ZM34.7725 74.3774C35.8328 74.3774 36.4071 73.5381 36.4071 72.2496C36.4071 70.9463 35.8328 70.1143 34.7725 70.1143C33.7196 70.1143 33.1453 70.9463 33.1453 72.2496C33.1453 73.5381 33.7196 74.3774 34.7725 74.3774ZM40.2012 74.9444C38.7286 74.9444 37.8819 73.862 37.8819 72.2496C37.8819 70.6224 38.7286 69.5474 40.2012 69.5474C41.6737 69.5474 42.5205 70.6224 42.5205 72.2496C42.5205 73.862 41.6737 74.9444 40.2012 74.9444ZM40.2012 74.3774C41.2614 74.3774 41.8357 73.5381 41.8357 72.2496C41.8357 70.9463 41.2614 70.1143 40.2012 70.1143C39.1483 70.1143 38.574 70.9463 38.574 72.2496C38.574 73.5381 39.1483 74.3774 40.2012 74.3774ZM46.0504 76.2402V71.1231H46.6763V71.8446C46.9781 71.3145 47.5745 71.0126 48.2887 71.0126C49.4152 71.0126 50.1662 71.7857 50.1662 72.9711C50.1662 74.1345 49.3711 74.9149 48.2519 74.9149C47.5451 74.9149 46.9413 74.591 46.6984 74.1786V76.2402H46.0504ZM48.0752 74.348C48.944 74.348 49.4815 73.8326 49.4815 72.9711C49.4815 72.1023 48.9661 71.5796 48.1194 71.5796C47.2727 71.5796 46.6836 72.095 46.6836 72.8828V73.0521C46.6836 73.8399 47.2358 74.348 48.0752 74.348ZM54.9443 72.7871V73.1552H51.5426C51.5647 73.8915 52.1022 74.3553 52.9931 74.3553C53.6484 74.3553 54.1123 74.105 54.3552 73.6264L54.9001 73.8768C54.5467 74.5615 53.8987 74.9149 52.9637 74.9149C51.6752 74.9149 50.88 74.2228 50.88 73.0079C50.88 71.7342 51.6899 71.0126 52.9342 71.0126C54.1859 71.0126 54.9443 71.6458 54.9443 72.7871ZM54.2742 72.6472V72.5956C54.2669 71.8888 53.7073 71.5059 52.9268 71.5059C52.1096 71.5059 51.5795 71.9477 51.5426 72.6472H54.2742ZM56.0161 74.8045V71.1231H56.642V71.9256C56.9439 71.3145 57.4813 71.0053 58.2471 71.0053C59.3 71.0053 59.8595 71.5943 59.8595 72.7134V74.8045H59.2116V72.8091C59.2116 71.9845 58.8214 71.5722 58.0409 71.5722C57.2016 71.5722 56.6641 72.117 56.6641 72.9932V74.8045H56.0161ZM62.6734 74.9149C61.5616 74.9149 60.7812 74.1197 60.7812 72.9638C60.7812 71.8152 61.5763 71.0126 62.7323 71.0126C63.4097 71.0126 63.9104 71.2482 64.249 71.7415V69.4664H64.897V74.8045H64.2711V74.0903C63.9619 74.6278 63.4244 74.9149 62.6734 74.9149ZM62.8501 74.348C63.6895 74.348 64.2638 73.8326 64.2638 73.0595V72.8901C64.2638 72.095 63.6821 71.5722 62.8207 71.5722C61.9813 71.5722 61.4659 72.095 61.4659 72.9638C61.4659 73.8252 61.996 74.348 62.8501 74.348ZM66.304 70.4457V69.6284H67.0624V70.4457H66.304ZM66.3629 74.8045V71.1231H67.0109V74.8045H66.3629ZM68.4409 74.8045V71.1231H69.0668V71.9256C69.3686 71.3145 69.9061 71.0053 70.6719 71.0053C71.7247 71.0053 72.2843 71.5943 72.2843 72.7134V74.8045H71.6364V72.8091C71.6364 71.9845 71.2462 71.5722 70.4657 71.5722C69.6263 71.5722 69.0888 72.117 69.0888 72.9932V74.8045H68.4409ZM77.0647 71.0789C76.7629 71.0789 76.5567 71.1893 76.4684 71.3955C76.7334 71.6164 76.8807 71.9256 76.8807 72.2864C76.8807 73.0374 76.2401 73.5675 75.1872 73.5675C74.8264 73.5675 74.5172 73.5086 74.2595 73.3908C74.0533 73.4644 73.9208 73.5896 73.9208 73.7663C73.9208 73.9872 74.0975 74.1345 74.5467 74.1345H75.9971C76.8659 74.1345 77.3077 74.4952 77.3077 75.1579C77.3077 75.9089 76.6524 76.3507 75.1578 76.3507C73.6852 76.3507 73.1477 75.931 73.1477 75.3346C73.1477 74.9812 73.3539 74.7014 73.7662 74.5762C73.4643 74.4511 73.3244 74.2228 73.3244 73.9504C73.3244 73.5822 73.5674 73.3319 73.9429 73.2067C73.6484 72.9859 73.4864 72.6619 73.4864 72.2864C73.4864 71.528 74.127 71.0126 75.1872 71.0126C75.5627 71.0126 75.8793 71.0789 76.137 71.1967C76.2401 70.7917 76.5641 70.5193 77.0942 70.5193C77.1826 70.5193 77.2562 70.5267 77.3593 70.5488V71.1083C77.2783 71.0862 77.1826 71.0789 77.0647 71.0789ZM75.1872 73.0889C75.8425 73.0889 76.2475 72.765 76.2475 72.2864C76.2475 71.8078 75.8425 71.4986 75.1872 71.4986C74.5319 71.4986 74.127 71.8004 74.127 72.2864C74.127 72.7576 74.5319 73.0889 75.1872 73.0889ZM75.872 74.7014H74.5246C74.3994 74.7014 74.2816 74.694 74.1785 74.6793C73.8987 74.7971 73.7662 74.9959 73.7662 75.2242C73.7662 75.6659 74.289 75.8279 75.1946 75.8279C76.2916 75.8279 76.6672 75.5849 76.6672 75.2021C76.6672 74.8634 76.4168 74.7014 75.872 74.7014Z" fill="white"/>
<path d="M23.7015 51.7886C23.7015 53.5421 22.1247 54.6975 19.5828 54.8334V56.0568H18.6449V54.8334C16.5516 54.7383 14.8933 53.9635 14.1456 52.6857L15.9263 51.5031C16.5244 52.4682 17.4487 52.9848 18.6449 53.1071V50.5516L17.775 50.4293C15.7496 50.1031 14.7709 49.2059 14.7709 47.7243C14.7709 46.0796 16.2254 45.0329 18.6449 44.9242V43.728H19.5828V44.9242C21.2955 45.0193 22.6548 45.6174 23.5384 46.6777L21.9344 47.9554C21.4858 47.2078 20.6838 46.732 19.5828 46.5961V48.8389L20.5207 48.9613C22.7092 49.3283 23.7015 50.1303 23.7015 51.7886ZM18.6313 48.703H18.6449V46.5553C17.5982 46.6097 17.0138 46.9631 17.0138 47.5884C17.0138 48.2001 17.4351 48.4991 18.6313 48.703ZM19.5828 53.1207C20.7246 53.0663 21.4043 52.6449 21.4043 51.9517C21.4043 51.2177 20.9285 50.9186 19.7731 50.7148L19.5828 50.6876V53.1207ZM24.4703 54.6023V52.9168C26.0879 52.142 27.6375 51.2585 28.7113 50.4837C29.8123 49.6817 30.1793 49.0292 30.1793 48.1457C30.1793 47.3029 29.6492 46.7728 28.6298 46.7728C27.5967 46.7728 26.985 47.3165 26.985 48.2408C26.985 48.404 26.9986 48.6078 27.053 48.8525L24.5655 48.6214C24.5247 48.404 24.5111 48.2001 24.5111 47.9962C24.5111 46.1068 26.2238 44.9514 28.7249 44.9514C31.2124 44.9514 32.762 45.998 32.762 47.969C32.762 49.2875 32.1367 50.2526 30.859 51.1905C30.0706 51.7342 29.0783 52.2508 27.9093 52.7401H32.8979V54.6023H24.4703ZM38.4661 54.8606C35.6388 54.8606 33.7902 53.0391 33.7902 49.9128C33.7902 46.7728 35.6388 44.9514 38.4661 44.9514C41.3071 44.9514 43.1557 46.7728 43.1557 49.9128C43.1557 53.0391 41.3071 54.8606 38.4661 54.8606ZM38.4661 53.0663C39.7847 53.0663 40.641 52.0197 40.641 49.9128C40.641 47.7923 39.7847 46.7456 38.4661 46.7456C37.1612 46.7456 36.2913 47.7923 36.2913 49.9128C36.2913 52.0197 37.1612 53.0663 38.4661 53.0663ZM46.7335 52.3731V54.6023H44.178V52.3731H46.7335ZM52.4307 54.8606C49.6034 54.8606 47.7548 53.0391 47.7548 49.9128C47.7548 46.7728 49.6034 44.9514 52.4307 44.9514C55.2717 44.9514 57.1203 46.7728 57.1203 49.9128C57.1203 53.0391 55.2717 54.8606 52.4307 54.8606ZM52.4307 53.0663C53.7493 53.0663 54.6056 52.0197 54.6056 49.9128C54.6056 47.7923 53.7493 46.7456 52.4307 46.7456C51.1258 46.7456 50.2559 47.7923 50.2559 49.9128C50.2559 52.0197 51.1258 53.0663 52.4307 53.0663ZM62.8511 54.8606C60.0238 54.8606 58.1751 53.0391 58.1751 49.9128C58.1751 46.7728 60.0238 44.9514 62.8511 44.9514C65.692 44.9514 67.5407 46.7728 67.5407 49.9128C67.5407 53.0391 65.692 54.8606 62.8511 54.8606ZM62.8511 53.0663C64.1696 53.0663 65.026 52.0197 65.026 49.9128C65.026 47.7923 64.1696 46.7456 62.8511 46.7456C61.5462 46.7456 60.6762 47.7923 60.6762 49.9128C60.6762 52.0197 61.5462 53.0663 62.8511 53.0663Z" fill="white"/>
<path d="M70.3507 35.1198C69.5702 35.1198 69.0401 34.7959 68.775 34.3394L68.6793 35.0094H68.1492V29.6713H68.7971V32.0201C69.0696 31.5415 69.6586 31.2175 70.3875 31.2175C71.5287 31.2175 72.265 32.0127 72.265 33.1687C72.265 34.3173 71.4846 35.1198 70.3507 35.1198ZM70.1666 34.5529C71.0354 34.5529 71.5803 34.0154 71.5803 33.1687C71.5803 32.322 71.0722 31.7845 70.1961 31.7845C69.3493 31.7845 68.7824 32.2925 68.7824 33.0803V33.2644C68.7824 34.0375 69.3273 34.5529 70.1666 34.5529ZM74.438 35.1198C73.5324 35.1198 72.9433 34.7002 72.9433 34.0301C72.9433 33.6767 73.1053 33.3749 73.3998 33.1908C73.6722 33.0288 74.0257 32.9184 74.7693 32.8521L76.1388 32.749V32.6827C76.1388 32.0422 75.7486 31.7403 74.9976 31.7403C74.2834 31.7403 73.8416 32.0127 73.7753 32.5134H73.0685C73.1495 31.7403 73.8858 31.2175 74.9976 31.2175C76.2051 31.2175 76.7941 31.7109 76.7941 32.7564V33.7283C76.7941 34.3541 76.8235 34.6781 76.9045 35.0094H76.2271C76.1903 34.8032 76.1756 34.5529 76.1682 34.2952C75.8885 34.8253 75.3068 35.1198 74.438 35.1198ZM74.6147 34.6044C75.5203 34.6044 76.1462 34.1332 76.1462 33.3969V33.2129L74.6515 33.3528C73.8931 33.4338 73.6354 33.6252 73.6354 34.0154C73.6354 34.3909 73.9888 34.6044 74.6147 34.6044ZM78.7988 29.6713V35.0094H78.1509V29.6713H78.7988ZM81.4125 35.1198C80.5069 35.1198 79.9179 34.7002 79.9179 34.0301C79.9179 33.6767 80.0799 33.3749 80.3744 33.1908C80.6468 33.0288 81.0002 32.9184 81.7439 32.8521L83.1134 32.749V32.6827C83.1134 32.0422 82.7231 31.7403 81.9721 31.7403C81.2579 31.7403 80.8161 32.0127 80.7499 32.5134H80.0431C80.124 31.7403 80.8603 31.2175 81.9721 31.2175C83.1796 31.2175 83.7686 31.7109 83.7686 32.7564V33.7283C83.7686 34.3541 83.7981 34.6781 83.8791 35.0094H83.2017C83.1649 34.8032 83.1502 34.5529 83.1428 34.2952C82.863 34.8253 82.2814 35.1198 81.4125 35.1198ZM81.5892 34.6044C82.4949 34.6044 83.1207 34.1332 83.1207 33.3969V33.2129L81.6261 33.3528C80.8677 33.4338 80.61 33.6252 80.61 34.0154C80.61 34.3909 80.9634 34.6044 81.5892 34.6044ZM85.0742 35.0094V31.328H85.7001V32.1305C86.0019 31.5194 86.5394 31.2102 87.3052 31.2102C88.358 31.2102 88.9176 31.7992 88.9176 32.9184V35.0094H88.2697V33.0141C88.2697 32.1894 87.8795 31.7771 87.099 31.7771C86.2596 31.7771 85.7222 32.322 85.7222 33.1981V35.0094H85.0742ZM91.9008 35.1198C90.6492 35.1198 89.8319 34.3541 89.8319 33.1687C89.8319 31.9685 90.6418 31.2175 91.9156 31.2175C92.9979 31.2175 93.6606 31.6888 93.8373 32.5797L93.1525 32.6607C93.02 32.079 92.5929 31.7771 91.9008 31.7771C91.032 31.7771 90.524 32.2852 90.524 33.1613C90.524 34.0449 91.0467 34.5603 91.9156 34.5603C92.5856 34.5603 93.0126 34.2658 93.1893 33.6841L93.8299 33.7872C93.6458 34.6265 92.9316 35.1198 91.9008 35.1198ZM98.613 32.992V33.3601H95.2114C95.2334 34.0964 95.7709 34.5603 96.6618 34.5603C97.3171 34.5603 97.781 34.3099 98.024 33.8313L98.5688 34.0817C98.2154 34.7664 97.5675 35.1198 96.6324 35.1198C95.3439 35.1198 94.5487 34.4277 94.5487 33.2129C94.5487 31.9391 95.3586 31.2175 96.6029 31.2175C97.8546 31.2175 98.613 31.8507 98.613 32.992ZM97.943 32.8521V32.8005C97.9356 32.0937 97.376 31.7109 96.5956 31.7109C95.7783 31.7109 95.2482 32.1526 95.2114 32.8521H97.943Z" fill="white"/>
<path fill-rule="evenodd" clip-rule="evenodd" d="M34.5486 33.6057C34.5486 32.3427 35.4511 31.5664 36.8942 31.5664H38.3882V29.7149H40.2582V35.5314H36.8872C35.4511 35.5314 34.5486 34.7852 34.5486 33.6057ZM36.5253 33.5408C36.5253 34.0251 36.8199 34.2777 37.386 34.2777H38.3882V32.7946H37.3953C36.8292 32.7946 36.5253 33.0495 36.5253 33.5408ZM52.3477 33.5362C52.3477 34.7991 51.4452 35.5754 50.0022 35.5754H48.5081V37.427H46.6382V31.6105H50.0091C51.4452 31.6105 52.3477 32.3567 52.3477 33.5362ZM50.3688 33.6011C50.3688 33.1167 50.0741 32.8642 49.508 32.8642H48.5081V34.3473H49.5011C50.0672 34.3473 50.3688 34.0924 50.3688 33.6011ZM64.5927 33.5362C64.5927 34.7991 63.6902 35.5754 62.2472 35.5754H60.7531V37.427H58.8832V31.6105H62.2541C63.6902 31.6105 64.5927 32.3567 64.5927 33.5362ZM62.6137 33.6011C62.6137 33.1167 62.3191 32.8642 61.753 32.8642H60.7531V34.3473H61.746C62.3121 34.3473 62.6137 34.0924 62.6137 33.6011ZM52.8929 33.557C52.8929 32.1481 54.0251 31.395 55.5841 31.395C57.1431 31.395 58.2753 32.1481 58.2753 33.557C58.2753 34.966 57.1431 35.7377 55.5841 35.7377C54.0251 35.7354 52.8929 34.966 52.8929 33.557ZM56.4518 33.557C56.4518 32.8688 56.1061 32.5235 55.5818 32.5235C55.0575 32.5235 54.7118 32.8688 54.7118 33.557C54.7118 34.236 55.0575 34.6068 55.5818 34.6068C56.1084 34.6045 56.4518 34.236 56.4518 33.557ZM46.028 33.6544C46.028 32.2454 45.1162 31.3926 43.469 31.3926C41.8868 31.3926 40.8683 32.2454 40.8683 33.5802C40.8683 34.9312 41.8775 35.7353 43.5595 35.7353C44.6174 35.7353 45.4712 35.3414 45.9213 34.7018L44.5803 34.2152C44.3483 34.4678 43.998 34.6068 43.6291 34.6068C43.0746 34.6068 42.6895 34.3843 42.5898 34.0066C42.5828 33.9811 42.5782 33.9579 42.5735 33.9301V33.9301V33.9301H42.5828H46.028V33.6544ZM42.5735 33.0565C42.6176 32.593 42.9355 32.308 43.4876 32.308C44.0398 32.308 44.3576 32.6092 44.3576 33.0565H42.5735Z" fill="#E81F00"/>
<mask id="mask2_1040_12949" style="mask-type:luminance" maskUnits="userSpaceOnUse" x="34" y="29" width="31" height="9">
<path fill-rule="evenodd" clip-rule="evenodd" d="M34.5486 33.6057C34.5486 32.3427 35.4511 31.5664 36.8942 31.5664H38.3882V29.7149H40.2582V35.5314H36.8872C35.4511 35.5314 34.5486 34.7852 34.5486 33.6057ZM36.5253 33.5408C36.5253 34.0251 36.8199 34.2777 37.386 34.2777H38.3882V32.7946H37.3953C36.8292 32.7946 36.5253 33.0495 36.5253 33.5408ZM52.3477 33.5362C52.3477 34.7991 51.4452 35.5754 50.0022 35.5754H48.5081V37.427H46.6382V31.6105H50.0091C51.4452 31.6105 52.3477 32.3567 52.3477 33.5362ZM50.3688 33.6011C50.3688 33.1167 50.0741 32.8642 49.508 32.8642H48.5081V34.3473H49.5011C50.0672 34.3473 50.3688 34.0924 50.3688 33.6011ZM64.5927 33.5362C64.5927 34.7991 63.6902 35.5754 62.2472 35.5754H60.7531V37.427H58.8832V31.6105H62.2541C63.6902 31.6105 64.5927 32.3567 64.5927 33.5362ZM62.6137 33.6011C62.6137 33.1167 62.3191 32.8642 61.753 32.8642H60.7531V34.3473H61.746C62.3121 34.3473 62.6137 34.0924 62.6137 33.6011ZM52.8929 33.557C52.8929 32.1481 54.0251 31.395 55.5841 31.395C57.1431 31.395 58.2753 32.1481 58.2753 33.557C58.2753 34.966 57.1431 35.7377 55.5841 35.7377C54.0251 35.7354 52.8929 34.966 52.8929 33.557ZM56.4518 33.557C56.4518 32.8688 56.1061 32.5235 55.5818 32.5235C55.0575 32.5235 54.7118 32.8688 54.7118 33.557C54.7118 34.236 55.0575 34.6068 55.5818 34.6068C56.1084 34.6045 56.4518 34.236 56.4518 33.557ZM46.028 33.6544C46.028 32.2454 45.1162 31.3926 43.469 31.3926C41.8868 31.3926 40.8683 32.2454 40.8683 33.5802C40.8683 34.9312 41.8775 35.7353 43.5595 35.7353C44.6174 35.7353 45.4712 35.3414 45.9213 34.7018L44.5803 34.2152C44.3483 34.4678 43.998 34.6068 43.6291 34.6068C43.0746 34.6068 42.6895 34.3843 42.5898 34.0066C42.5828 33.9811 42.5782 33.9579 42.5735 33.9301V33.9301V33.9301H42.5828H46.028V33.6544ZM42.5735 33.0565C42.6176 32.593 42.9355 32.308 43.4876 32.308C44.0398 32.308 44.3576 32.6092 44.3576 33.0565H42.5735Z" fill="white"/>
</mask>
<g mask="url(#mask2_1040_12949)">
<path fill-rule="evenodd" clip-rule="evenodd" d="M27.941 12.1387H70.8908V55.2501H27.941V12.1387Z" fill="white"/>
</g>
<path d="M16.5063 35.2124V33.0636L14.1592 29.5827H15.0711L16.7442 32.1042C16.8235 32.231 16.871 32.3262 16.8948 32.4134H16.9107C16.9345 32.3262 16.982 32.231 17.0613 32.1042L18.7502 29.5827H19.6621L17.2913 33.0636V35.2124H16.5063ZM21.4698 35.3313C20.1139 35.3313 19.202 34.5146 19.202 33.2301C19.202 31.9456 20.1139 31.1289 21.4698 31.1289C22.8256 31.1289 23.7296 31.9456 23.7296 33.2301C23.7296 34.5146 22.8256 35.3313 21.4698 35.3313ZM21.4698 34.7287C22.4054 34.7287 22.9922 34.1895 22.9922 33.2301C22.9922 32.2707 22.4054 31.7315 21.4698 31.7315C20.5341 31.7315 19.9473 32.2707 19.9473 33.2301C19.9473 34.1895 20.5341 34.7287 21.4698 34.7287ZM26.4291 35.3313C25.2318 35.3313 24.7005 34.7049 24.7005 33.5631V31.2478H25.4062V33.4918C25.4062 34.4274 25.9613 34.7367 26.5639 34.7367C27.5867 34.7367 28.0625 33.9992 28.0625 33.2222V31.2478H28.7682V35.2124H28.0863V34.3243C27.8325 34.9507 27.1982 35.3313 26.4291 35.3313ZM30.9545 32.2548C31.1606 31.6125 31.6839 31.1368 32.3896 31.1368C32.5007 31.1368 32.5958 31.1447 32.691 31.1606V31.8425C32.6117 31.8346 32.5403 31.8266 32.4451 31.8266C31.9456 31.8266 31.6364 31.9694 31.4144 32.2072C31.0575 32.572 31.002 33.0874 31.002 33.6028V35.2124H30.3043V31.2478H30.9545V32.2548Z" fill="white"/>
</g>
</g>
<defs>
<filter id="filter0_d_1040_12949" x="-2.86102e-05" y="1.21593e-05" width="168.212" height="107.611" filterUnits="userSpaceOnUse" color-interpolation-filters="sRGB">
<feFlood flood-opacity="0" result="BackgroundImageFix"/>
<feColorMatrix in="SourceAlpha" type="matrix" values="0 0 0 0 0 0 0 0 0 0 0 0 0 0 0 0 0 0 127 0" result="hardAlpha"/>
<feOffset dx="-1.13274" dy="1.69912"/>
<feGaussianBlur stdDeviation="1.69912"/>
<feColorMatrix type="matrix" values="0 0 0 0 0 0 0 0 0 0 0 0 0 0 0 0 0 0 0.2 0"/>
<feBlend mode="normal" in2="BackgroundImageFix" result="effect1_dropShadow_1040_12949"/>
<feBlend mode="normal" in="SourceGraphic" in2="effect1_dropShadow_1040_12949" result="shape"/>
</filter>
<filter id="filter1_d_1040_12949" x="-2.86102e-05" y="1.21593e-05" width="168.212" height="107.611" filterUnits="userSpaceOnUse" color-interpolation-filters="sRGB">
<feFlood flood-opacity="0" result="BackgroundImageFix"/>
<feColorMatrix in="SourceAlpha" type="matrix" values="0 0 0 0 0 0 0 0 0 0 0 0 0 0 0 0 0 0 127 0" result="hardAlpha"/>
<feOffset dx="-1.13274" dy="1.69912"/>
<feGaussianBlur stdDeviation="1.69912"/>
<feColorMatrix type="matrix" values="0 0 0 0 0 0 0 0 0 0 0 0 0 0 0 0 0 0 0.2 0"/>
<feBlend mode="normal" in2="BackgroundImageFix" result="effect1_dropShadow_1040_12949"/>
<feBlend mode="normal" in="SourceGraphic" in2="effect1_dropShadow_1040_12949" result="shape"/>
</filter>
<filter id="filter2_f_1040_12949" x="-38.8368" y="-139.502" width="346.615" height="345.013" filterUnits="userSpaceOnUse" color-interpolation-filters="sRGB">
<feFlood flood-opacity="0" result="BackgroundImageFix"/>
<feBlend mode="normal" in="SourceGraphic" in2="BackgroundImageFix" result="shape"/>
<feGaussianBlur stdDeviation="57.7334" result="effect1_foregroundBlur_1040_12949"/>
</filter>
<linearGradient id="paint0_linear_1040_12949" x1="4.53094" y1="1.69913" x2="4.53094" y2="102.513" gradientUnits="userSpaceOnUse">
<stop stop-color="#7D858D"/>
<stop offset="1" stop-color="#414447"/>
</linearGradient>
<radialGradient id="paint1_radial_1040_12949" cx="0" cy="0" r="1" gradientUnits="userSpaceOnUse" gradientTransform="translate(134.471 33.0046) rotate(90) scale(59.7648 60.6042)">
<stop stop-color="white"/>
<stop offset="1" stop-color="white" stop-opacity="0.01"/>
</radialGradient>
<clipPath id="clip0_1040_12949">
<rect x="4.53094" y="1.69913" width="161.416" height="100.814" rx="6.79646" fill="white"/>
</clipPath>
</defs>
</svg>
