<svg width="24" height="24" viewBox="0 0 24 24" fill="none" xmlns="http://www.w3.org/2000/svg">
<path d="M19.75 20.9297C20.4404 20.9297 21 20.37 21 19.6797V17.6797C21 17.075 20.5705 16.5709 20 16.4551L20 10.6553C20.5706 10.5395 21 10.0345 21 9.42969V7.18164C21 6.66388 20.6807 6.19994 20.1973 6.01465L12.626 3.11621C12.2232 2.96202 11.7768 2.96202 11.374 3.11621L3.80273 6.01465C3.3193 6.19994 3 6.66388 3 7.18164L3 9.42969C3 10.0345 3.42938 10.5395 4 10.6553L4 16.4551C3.42948 16.5709 3 17.075 3 17.6797L3 19.6797C3 20.37 3.55964 20.9297 4.25 20.9297L19.75 20.9297ZM4.5 7.35352L11.9102 4.5166C11.9677 4.49458 12.0323 4.49458 12.0898 4.5166L19.5 7.35352V9.17969L4.5 9.17969L4.5 7.35352ZM5.5 16.4297L5.5 10.6797H6.5L6.5 16.4297H5.5ZM8 16.4297L8 10.6797H9.25L9.25 16.4297H8ZM10.75 16.4297L10.75 10.6797H13.25V16.4297L10.75 16.4297ZM14.75 16.4297V10.6797H16V16.4297H14.75ZM17.5 16.4297V10.6797H18.5V16.4297H17.5ZM4.5 17.9297L19.5 17.9297V19.4297L4.5 19.4297L4.5 17.9297Z" fill="#262626"/>
</svg>
