<svg width="28" height="28" viewBox="0 0 28 28" fill="none" xmlns="http://www.w3.org/2000/svg">
<path d="M12.7949 3.625C17.8593 3.625 21.9648 7.7305 21.9648 12.7949C21.9648 15.0571 21.144 17.1265 19.7861 18.7256L24.1514 23.0908C24.444 23.3837 24.4442 23.8586 24.1514 24.1514C23.8586 24.4442 23.3837 24.444 23.0908 24.1514L18.7256 19.7861C17.1265 21.144 15.0571 21.9648 12.7949 21.9648C7.7305 21.9648 3.625 17.8594 3.625 12.7949C3.62507 7.73054 7.73054 3.62506 12.7949 3.625ZM12.7949 5.125C8.55897 5.12506 5.12507 8.55896 5.125 12.7949C5.125 17.0309 8.55893 20.4648 12.7949 20.4648C17.031 20.4648 20.4648 17.031 20.4648 12.7949C20.4648 8.55893 17.0309 5.125 12.7949 5.125Z" fill="#262626"/>
</svg>
