<svg width="24" height="25" viewBox="0 0 24 25" fill="none" xmlns="http://www.w3.org/2000/svg">
<path d="M13.8193 20.6963C12.7482 21.7665 11.0133 21.7696 9.93848 20.7031L3.8125 14.623C3.25272 14.0674 2.95791 13.2981 3.00391 12.5107L3.35938 6.44727C3.44095 5.05589 4.55009 3.94481 5.94141 3.8623L11.9619 3.50684C12.7459 3.4605 13.5128 3.75151 14.0684 4.30664L20.1973 10.4316C21.272 11.5057 21.2719 13.2482 20.1973 14.3223L13.8193 20.6963ZM10.9951 19.6377C11.4837 20.1225 12.2719 20.1213 12.7588 19.6348L19.1377 13.2607C19.6257 12.7725 19.6261 11.9802 19.1377 11.4922L13.0078 5.36719C12.7553 5.11512 12.4069 4.9829 12.0508 5.00391L6.03027 5.36035C5.39791 5.39784 4.89361 5.90279 4.85645 6.53516L4.50195 12.5977C4.48101 12.9556 4.61471 13.306 4.86914 13.5586L10.9951 19.6377ZM8.33496 9.99219C7.69538 9.99197 7.17687 9.47406 7.17676 8.83496C7.17676 8.19576 7.69531 7.67697 8.33496 7.67676C8.97479 7.67676 9.49414 8.19563 9.49414 8.83496C9.49403 9.47419 8.97472 9.99219 8.33496 9.99219Z" fill="#262626"/>
</svg>
