<svg width="24" height="24" viewBox="0 0 24 24" fill="none" xmlns="http://www.w3.org/2000/svg">
<path d="M11.999 2C17.5208 2.00027 21.997 6.47716 21.9971 11.999C21.9968 17.5207 17.5207 21.9968 11.999 21.9971C6.47716 21.997 2.00027 17.5208 2 11.999C2.00002 6.477 6.477 2.00002 11.999 2ZM11.999 3.5C7.30543 3.50002 3.50002 7.30543 3.5 11.999C3.50027 16.6924 7.30559 20.497 11.999 20.4971C16.6922 20.4968 20.4968 16.6922 20.4971 11.999C20.497 7.30559 16.6924 3.50027 11.999 3.5ZM12.0098 15.1504C12.2888 15.1504 12.5234 15.2467 12.7139 15.4385C12.9042 15.6302 13 15.8666 13 16.1475C12.9998 16.4592 12.9002 16.7046 12.7012 16.8828C12.5019 17.061 12.271 17.1504 12.0098 17.1504C11.7397 17.1503 11.5042 17.0617 11.3027 16.8857C11.1014 16.7097 11.0002 16.4637 11 16.1475C11 15.8668 11.0975 15.6301 11.292 15.4385C11.4869 15.2468 11.7264 15.1504 12.0098 15.1504ZM11.9971 6.90039C13.6539 6.90039 14.9971 8.24354 14.9971 9.90039C14.9969 11.2003 14.1704 12.3058 13.0166 12.7227C12.9133 12.76 12.8318 12.8173 12.7852 12.8691C12.7636 12.8931 12.7537 12.9112 12.75 12.9199C12.7472 12.9267 12.7471 12.9296 12.7471 12.9307V13.6504C12.7469 14.0644 12.4112 14.4004 11.9971 14.4004C11.583 14.4004 11.2473 14.0644 11.2471 13.6504V12.9307C11.2471 12.0496 11.9548 11.511 12.5068 11.3115C13.0853 11.1025 13.4969 10.5485 13.4971 9.90039C13.4971 9.07196 12.8255 8.40039 11.9971 8.40039C11.3452 8.40042 10.7883 8.8168 10.582 9.40039C10.5272 9.55568 10.4971 9.72392 10.4971 9.90039C10.4969 10.3144 10.1612 10.6504 9.74707 10.6504C9.33301 10.6504 8.99728 10.3144 8.99707 9.90039C8.99707 9.55123 9.05716 9.21403 9.16797 8.90039C9.57946 7.73626 10.6897 6.90042 11.9971 6.90039Z" fill="#262626"/>
</svg>
