<svg width="28" height="28" viewBox="0 0 28 28" fill="none" xmlns="http://www.w3.org/2000/svg">
<path d="M23.625 13.6739C23.625 13.1208 23.3959 12.5923 22.9922 12.2142L15.0254 4.75219C14.4485 4.21189 13.5514 4.21189 12.9746 4.75219L5.00779 12.2142C4.60408 12.5923 4.375 13.1208 4.375 13.6739L4.37503 22.6251C4.37504 23.1774 4.82275 23.6251 5.37503 23.6251H10.9735C11.2496 23.6251 11.4735 23.4012 11.4735 23.1251V17.6534C11.4735 17.1011 11.9212 16.6534 12.4735 16.6534H15.5266C16.0789 16.6534 16.5266 17.1011 16.5266 17.6534V23.1251C16.5266 23.4012 16.7504 23.6251 17.0266 23.6251H22.625C23.1773 23.6251 23.625 23.1774 23.625 22.6251L23.625 13.6739Z" stroke="#262626" stroke-width="1.5" stroke-linecap="round" stroke-linejoin="bevel"/>
</svg>
