<svg width="28" height="28" viewBox="0 0 28 28" fill="none" xmlns="http://www.w3.org/2000/svg">
<path d="M22.7935 4.82227C24.312 4.82249 25.5434 6.0537 25.5435 7.57227V20.4883C25.5435 22.0069 24.3121 23.2381 22.7935 23.2383H5.21045C3.69167 23.2383 2.46045 22.0071 2.46045 20.4883V7.57227C2.46055 6.05357 3.69173 4.82227 5.21045 4.82227H22.7935ZM14.7544 14.4014C14.3085 14.738 13.6933 14.7383 13.2476 14.4014L3.97412 7.39258C3.96565 7.45131 3.96046 7.51119 3.96045 7.57227V20.4883C3.96045 21.1786 4.52009 21.7383 5.21045 21.7383H22.7935C23.4836 21.7381 24.0435 21.1785 24.0435 20.4883V7.57227C24.0434 7.51085 24.0374 7.45065 24.0288 7.3916L14.7544 14.4014ZM5.21045 6.32227C5.15933 6.32227 5.10859 6.32607 5.05908 6.33203L14.0005 13.0908L22.9429 6.33203C22.8939 6.32617 22.844 6.32228 22.7935 6.32227H5.21045Z" fill="#262626"/>
</svg>
