<svg width="16" height="16" viewBox="0 0 16 16" fill="none" xmlns="http://www.w3.org/2000/svg">
<path d="M7.99951 15C4.13372 14.9999 0.999512 11.8658 0.999512 8C0.999619 4.13427 4.13379 1.00011 7.99951 0.999999C11.8653 1 14.9994 4.13421 14.9995 8C14.9995 11.8659 11.8654 15 7.99951 15ZM7.99951 14C11.3131 14 13.9995 11.3136 13.9995 8C13.9994 4.68649 11.313 2 7.99951 2C4.68607 2.00011 1.99962 4.68656 1.99951 8C1.99951 11.3135 4.686 13.9999 7.99951 14ZM7.99951 5.47266C7.60091 5.47254 7.27783 5.14863 7.27783 4.75C7.27805 4.35155 7.60104 4.02844 7.99951 4.02832C8.39808 4.02832 8.72098 4.35148 8.72119 4.75C8.72119 5.1487 8.39822 5.47266 7.99951 5.47266ZM7.99951 12.1113C7.72347 12.1113 7.49964 11.8873 7.49951 11.6113L7.49951 6.91699C7.49953 6.64088 7.7234 6.41702 7.99951 6.41699C8.27564 6.41699 8.49949 6.64086 8.49951 6.91699L8.49951 11.6113C8.49938 11.8874 8.27557 12.1113 7.99951 12.1113Z" fill="#262626"/>
</svg>
