<svg width="24" height="24" viewBox="0 0 24 24" fill="none" xmlns="http://www.w3.org/2000/svg">
<path d="M12 2.00195C16.4081 2.00195 20.001 5.52663 20.001 9.89746C20.001 12.6603 18.6571 15.2381 17.167 17.2607C15.6674 19.2962 13.9528 20.8593 13.0684 21.6074C12.4471 22.1329 11.5539 22.1328 10.9326 21.6074C10.0482 20.8593 8.33258 19.2962 6.83301 17.2607C5.34301 15.2382 4.00002 12.6602 4 9.89746C4 5.52676 7.59207 2.00215 12 2.00195ZM12 3.50195C8.3998 3.50215 5.5 6.37573 5.5 9.89746C5.50002 12.192 6.62855 14.4538 8.04102 16.3711C9.44408 18.2756 11.0629 19.7527 11.9014 20.4619C11.9364 20.4915 11.9708 20.5009 12 20.501C12.0293 20.501 12.0643 20.4917 12.0996 20.4619C12.9381 19.7527 14.5569 18.2755 15.96 16.3711C17.3724 14.4539 18.501 12.1919 18.501 9.89746C18.501 6.37561 15.6004 3.50195 12 3.50195ZM12.001 6.16992C14.1352 6.17022 15.8581 7.90984 15.8584 10.0459C15.8584 12.1822 14.1353 13.9216 12.001 13.9219C9.86638 13.9219 8.14355 12.1823 8.14355 10.0459C8.1438 7.90966 9.86654 6.16992 12.001 6.16992ZM12.001 7.66992C10.7035 7.66992 9.6438 8.72953 9.64355 10.0459C9.64355 11.3625 10.7033 12.4219 12.001 12.4219C13.2984 12.4216 14.3584 11.3623 14.3584 10.0459C14.3582 8.72972 13.2982 7.67022 12.001 7.66992Z" fill="#262626"/>
</svg>
