<svg width="24" height="25" viewBox="0 0 24 25" fill="none" xmlns="http://www.w3.org/2000/svg">
<path d="M8.92334 20.5215C8.99438 20.5214 9.06232 20.5087 9.12744 20.4902C9.15523 20.4856 9.18293 20.4801 9.21045 20.4736L15.0757 19.0859L20.4429 20.3555L20.5894 20.3818C21.3188 20.4665 21.9808 19.8958 21.981 19.1397L21.981 7.06445C21.981 6.48496 21.582 5.98107 21.0181 5.84766L15.3647 4.51074C15.1755 4.46597 14.9778 4.46597 14.7886 4.51074L8.92236 5.89941L3.55713 4.62891C2.77227 4.44323 2.01934 5.03828 2.01904 5.84473L2.01904 17.9199C2.01904 18.4993 2.41716 19.0032 2.98096 19.1367L8.63525 20.4736L8.70947 20.4873C8.77739 20.5075 8.84885 20.5215 8.92334 20.5215ZM9.67334 7.26172L14.3267 6.16113L14.3267 17.7227L9.67334 18.8242L9.67334 7.26172ZM15.8267 17.7227L15.8267 6.16211L20.481 7.2627L20.481 18.8242L15.8267 17.7227ZM3.51904 17.7227L3.51904 6.16211L8.17334 7.2627L8.17334 18.8252L3.51904 17.7227Z" fill="#262626"/>
</svg>
