<svg width="24" height="24" viewBox="0 0 24 24" fill="none" xmlns="http://www.w3.org/2000/svg">
<path d="M18.2461 3C19.7649 3 20.9961 4.23122 20.9961 5.75V14.8604C20.996 16.379 19.7648 17.6104 18.2461 17.6104H9.51367C9.34734 17.6104 9.18518 17.6657 9.05371 17.7676L5.82227 20.2715C4.67233 21.1627 3.00003 20.3435 3 18.8887V5.75C3 4.23122 4.23122 3 5.75 3H18.2461ZM5.75 4.5C5.05964 4.5 4.5 5.05964 4.5 5.75V18.8887C4.50003 19.0965 4.73906 19.2132 4.90332 19.0859L8.13477 16.582C8.52919 16.2764 9.01467 16.1104 9.51367 16.1104H18.2461C18.9364 16.1104 19.496 15.5506 19.4961 14.8604V5.75C19.4961 5.05964 18.9364 4.5 18.2461 4.5H5.75ZM8 9C8.55228 9 9 9.44772 9 10C9 10.5523 8.55228 11 8 11C7.44772 11 7 10.5523 7 10C7 9.44772 7.44772 9 8 9ZM12 9C12.5523 9 13 9.44772 13 10C13 10.5523 12.5523 11 12 11C11.4477 11 11 10.5523 11 10C11 9.44772 11.4477 9 12 9ZM16 9C16.5523 9 17 9.44772 17 10C17 10.5523 16.5523 11 16 11C15.4477 11 15 10.5523 15 10C15 9.44772 15.4477 9 16 9Z" fill="#262626"/>
</svg>
