<svg width="24" height="25" viewBox="0 0 24 25" fill="none" xmlns="http://www.w3.org/2000/svg">
<path d="M20.5 6.5C21.3284 6.5 22 7.17157 22 8V17C22 17.7767 21.4097 18.4154 20.6533 18.4922L20.5 18.5H3.5L3.34668 18.4922C2.59028 18.4154 2 17.7767 2 17V8C2 7.17157 2.67157 6.5 3.5 6.5H20.5ZM3.5 17H5.97656C5.54618 15.8596 4.64042 14.9527 3.5 14.5225V17ZM7.55176 8C7.02084 9.96983 5.46979 11.5198 3.5 12.0508V12.9482C5.46991 13.4792 7.02082 15.0301 7.55176 17H16.4482C16.9792 15.0301 18.5301 13.4792 20.5 12.9482V12.0508C18.5302 11.5198 16.9792 9.96983 16.4482 8H7.55176ZM20.5 14.5225C19.3596 14.9527 18.4538 15.8596 18.0234 17H20.5V14.5225ZM12 9.5C13.6569 9.5 15 10.8431 15 12.5C15 14.1569 13.6569 15.5 12 15.5C10.3431 15.5 9 14.1569 9 12.5C9 10.8431 10.3431 9.5 12 9.5ZM12 11C11.1716 11 10.5 11.6716 10.5 12.5C10.5 13.3284 11.1716 14 12 14C12.8284 14 13.5 13.3284 13.5 12.5C13.5 11.6716 12.8284 11 12 11ZM3.5 10.4766C4.64027 10.0462 5.54622 9.14026 5.97656 8H3.5V10.4766ZM18.0234 8C18.4538 9.14026 19.3597 10.0462 20.5 10.4766V8H18.0234Z" fill="#262626"/>
</svg>
