<svg width="24" height="24" viewBox="0 0 24 24" fill="none" xmlns="http://www.w3.org/2000/svg">
<path d="M4.75293 19C3.23417 19 2.00297 17.7687 2.00293 16.25V9.24902C2.00169 9.22865 2 9.20818 2 9.1875C2 9.16686 2.0017 9.14631 2.00293 9.12598V7.5625C2.00297 6.04375 3.23417 4.8125 4.75293 4.8125L19.25 4.8125C20.7687 4.81252 22 6.04377 22 7.5625V16.25C22 17.7687 20.7687 19 19.25 19L4.75293 19ZM20.5 8.1875V7.5625C20.5 6.87219 19.9403 6.31252 19.25 6.3125L4.75293 6.3125C4.0626 6.3125 3.50297 6.87218 3.50293 7.5625V8.1875L20.5 8.1875ZM19.25 17.5C19.9403 17.5 20.5 16.9403 20.5 16.25V10.1875L3.50293 10.1875V16.25C3.50297 16.9403 4.0626 17.5 4.75293 17.5L19.25 17.5ZM5.83594 15.5625C5.42172 15.5625 5.08594 15.2267 5.08594 14.8125C5.086 14.3983 5.42176 14.0625 5.83594 14.0625H7.8916C8.30546 14.0629 8.64153 14.3986 8.6416 14.8125C8.6416 15.2265 8.30551 15.5621 7.8916 15.5625H5.83594Z" fill="#262626"/>
</svg>
