<svg width="24" height="24" viewBox="0 0 24 24" fill="none" xmlns="http://www.w3.org/2000/svg">
<path d="M17.7495 2C18.9922 2 19.9995 3.00736 19.9995 4.25L19.9995 20.7773C19.9993 21.8963 18.642 22.4516 17.8579 21.6533L17.0015 20.7813L16.103 21.7051C15.7879 22.0287 15.2742 22.0493 14.9341 21.752L13.7397 20.707L12.5649 21.751C12.2413 22.0383 11.7528 22.0366 11.4312 21.7471L10.314 20.7412L9.34326 21.7139C9.02586 22.0314 8.51581 22.0471 8.1792 21.75L7.03564 20.7402L6.14111 21.6523C5.35713 22.4509 3.9998 21.8963 3.99951 20.7773L3.99951 4.25C3.99951 3.00736 5.00687 2 6.24951 2L17.7495 2ZM6.24951 3.5C5.8353 3.5 5.49951 3.83579 5.49951 4.25L5.49951 20.1641L6.39795 19.25L6.45947 19.1934C6.75678 18.9445 7.18717 18.9292 7.50146 19.1563L7.56689 19.209L8.71338 20.2207L9.68994 19.2451L9.75146 19.1885C10.0724 18.9247 10.5438 18.9306 10.8589 19.2139L12.0024 20.2432L13.1724 19.2061L13.2993 19.1123C13.6101 18.9257 14.0135 18.9551 14.2954 19.2012L15.4575 20.2168L16.3901 19.2588L16.4556 19.1982C16.7689 18.9363 17.2271 18.9356 17.5415 19.1963L17.606 19.2559L18.4995 20.165L18.4995 4.25C18.4995 3.83579 18.1637 3.5 17.7495 3.5L6.24951 3.5ZM14.9995 14.25C15.4137 14.25 15.7495 14.5858 15.7495 15C15.7495 15.4142 15.4137 15.75 14.9995 15.75L8.99951 15.75C8.5853 15.75 8.24951 15.4142 8.24951 15C8.24951 14.5858 8.5853 14.25 8.99951 14.25L14.9995 14.25ZM14.9995 10.25C15.4137 10.25 15.7495 10.5858 15.7495 11C15.7495 11.4142 15.4137 11.75 14.9995 11.75L8.99951 11.75C8.5853 11.75 8.24951 11.4142 8.24951 11C8.24951 10.5858 8.5853 10.25 8.99951 10.25L14.9995 10.25ZM14.9995 6.25C15.4137 6.25 15.7495 6.58579 15.7495 7C15.7495 7.41421 15.4137 7.75 14.9995 7.75L8.99951 7.75C8.5853 7.75 8.24951 7.41421 8.24951 7C8.24951 6.58579 8.5853 6.25 8.99951 6.25L14.9995 6.25Z" fill="#262626"/>
</svg>
