<svg width="24" height="24" viewBox="0 0 24 24" fill="none" xmlns="http://www.w3.org/2000/svg">
<path d="M11.6738 2.16992C15.3634 2.17001 18.5709 4.22856 20.2275 7.25879L20.6367 6.24121C20.7913 5.85719 21.2277 5.67141 21.6113 5.82715C21.9949 5.98301 22.1806 6.42146 22.0264 6.80566L20.9199 9.55957C20.775 9.91994 20.3814 10.1049 20.0166 9.99805L19.9453 9.97266L17.2041 8.86035C16.8205 8.70439 16.6346 8.26607 16.7891 7.88184C16.9436 7.49788 17.3801 7.31228 17.7637 7.46777L18.8789 7.9209C17.465 5.3823 14.7671 3.67001 11.6738 3.66992C7.11912 3.66992 3.41992 7.38282 3.41992 11.9707C3.4201 16.5584 7.11923 20.2705 11.6738 20.2705C13.8878 20.2704 15.8975 19.3951 17.3809 17.9668C17.6792 17.6795 18.1541 17.688 18.4414 17.9863C18.7287 18.2847 18.7193 18.7596 18.4209 19.0469C16.67 20.7328 14.2922 21.7704 11.6738 21.7705C6.28348 21.7705 1.9201 17.3795 1.91992 11.9707C1.91992 6.56174 6.28337 2.16992 11.6738 2.16992ZM19.3184 15.1045C19.4745 14.7211 19.9115 14.5361 20.2949 14.6914C20.6786 14.8471 20.864 15.2851 20.708 15.6689C20.5272 16.1137 20.3139 16.5428 20.0723 16.9531C19.8619 17.31 19.4017 17.4297 19.0449 17.2197C18.6884 17.0096 18.5701 16.5493 18.7803 16.1924C18.985 15.8447 19.1653 15.481 19.3184 15.1045ZM12.1143 7.05469C13.0362 7.05479 13.7137 7.37236 14.1523 7.8623C14.5687 8.3276 14.7127 8.885 14.7129 9.29102C14.7129 9.70509 14.3769 10.0408 13.9629 10.041C13.5488 10.0409 13.2129 9.70516 13.2129 9.29102C13.2127 9.20143 13.1716 9.01578 13.0342 8.8623C12.9183 8.73297 12.6701 8.55478 12.1143 8.55469C11.5243 8.55477 11.2237 8.73728 11.0879 8.9043C10.9574 9.065 10.862 9.3568 10.9912 9.8418C11.0734 10.1504 11.1317 10.5617 11.1689 11.0186H12.5771C12.9908 11.019 13.3268 11.3549 13.3271 11.7686C13.3271 12.1825 12.991 12.5181 12.5771 12.5186H11.2129C11.2093 12.7389 11.2037 12.9575 11.1914 13.168C11.1645 13.6292 11.1132 14.0891 11.0332 14.4873H14.4248C14.8386 14.4875 15.1745 14.8235 15.1748 15.2373C15.1748 15.6514 14.8388 15.9871 14.4248 15.9873H8.87988C8.46567 15.9873 8.12988 15.6515 8.12988 15.2373C8.13024 14.8234 8.46589 14.4873 8.87988 14.4873H9.48828C9.49561 14.464 9.50611 14.4389 9.51367 14.4111C9.59879 14.098 9.66137 13.6281 9.69336 13.0801C9.70418 12.8945 9.71048 12.7059 9.71387 12.5186H8.87988C8.46567 12.5186 8.12988 12.1828 8.12988 11.7686C8.13026 11.3547 8.4659 11.0186 8.87988 11.0186H9.66309C9.63283 10.6932 9.59169 10.4177 9.54102 10.2275C9.32385 9.41205 9.41323 8.58789 9.92383 7.95898C10.4292 7.3369 11.2267 7.05477 12.1143 7.05469ZM20.626 10.751C21.0393 10.7293 21.3923 11.0466 21.4141 11.46C21.4393 11.9435 21.4294 12.4219 21.3857 12.8916C21.3474 13.304 20.9817 13.6082 20.5693 13.5703C20.157 13.5323 19.8533 13.1663 19.8916 12.7539C19.9286 12.3562 19.9384 11.9508 19.917 11.54C19.8954 11.1265 20.2126 10.7732 20.626 10.751Z" fill="#262626"/>
</svg>
