<svg width="24" height="24" viewBox="0 0 24 24" fill="none" xmlns="http://www.w3.org/2000/svg">
<path d="M18.2461 3C19.7649 3 20.9961 4.23122 20.9961 5.75V14.8604C20.996 16.379 19.7648 17.6104 18.2461 17.6104H15.4482C15.1914 17.6104 14.9529 17.742 14.8154 17.959L13.4229 20.1562C12.7608 21.2009 11.2531 21.2476 10.5273 20.2461L8.8418 17.9199C8.70073 17.7253 8.47474 17.6104 8.23438 17.6104H4.75C3.78358 17.6104 3.00013 16.8267 3 15.8604V5.75C3 4.23122 4.23122 3 5.75 3H18.2461ZM5.75 4.5C5.05964 4.5 4.5 5.05964 4.5 5.75V15.8604C4.50013 15.9983 4.61201 16.1104 4.75 16.1104H8.23438C8.95559 16.1104 9.63344 16.456 10.0566 17.04L11.7422 19.3662C11.8458 19.5089 12.0606 19.5022 12.1553 19.3535L13.5479 17.1562C13.9604 16.5052 14.6775 16.1104 15.4482 16.1104H18.2461C18.9364 16.1104 19.496 15.5506 19.4961 14.8604V5.75C19.4961 5.05964 18.9364 4.5 18.2461 4.5H5.75Z" fill="#262626"/>
<path d="M11.7547 6.86921C11.8248 6.71021 12.0507 6.71031 12.1209 6.86921L13.0819 9.05671C13.1115 9.1238 13.1757 9.16889 13.2489 9.17487L15.6922 9.37507C15.8705 9.38966 15.9418 9.61384 15.8045 9.72858L13.9588 11.2706C13.9004 11.3194 13.8745 11.3978 13.8924 11.4717L14.4481 13.7716C14.4894 13.9427 14.3054 14.0799 14.1531 13.9913L12.0389 12.7598C11.9767 12.7236 11.8999 12.7237 11.8377 12.7598L9.72248 13.9913C9.57033 14.0797 9.38638 13.9426 9.42756 13.7716L9.98323 11.4717C10.0011 11.3978 9.97617 11.3194 9.9178 11.2706L8.07209 9.72858C7.93492 9.61392 8.00537 9.38992 8.18342 9.37507L10.6278 9.17487C10.7009 9.16881 10.7652 9.12385 10.7948 9.05671L11.7547 6.86921Z" fill="#262626"/>
</svg>
