<svg width="28" height="28" viewBox="0 0 28 28" fill="none" xmlns="http://www.w3.org/2000/svg">
<path d="M13.9999 3.62598C14.4141 3.62598 14.7499 3.9618 14.7499 4.37598V13.249L23.623 13.25C24.0372 13.25 24.373 13.5858 24.373 14C24.3729 14.4142 24.0371 14.75 23.623 14.75H14.7499L14.7509 23.624C14.7508 24.0382 14.414 24.374 13.9999 24.374C13.5858 24.374 13.249 24.0381 13.2489 23.624V14.75L4.37686 14.751C3.96267 14.751 3.6259 14.4142 3.62589 14C3.62589 13.5858 3.96266 13.249 4.37686 13.249H13.2489L13.2499 4.37598C13.25 3.96183 13.5858 3.62603 13.9999 3.62598Z" fill="#262626"/>
</svg>
