<svg width="113" height="103" viewBox="0 0 113 103" fill="none" xmlns="http://www.w3.org/2000/svg">
<g clip-path="url(#clip0_1041_13052)">
<g clip-path="url(#clip1_1041_13052)">
<rect width="113.147" height="245" transform="translate(0.000244141)" fill="#E92B0E"/>
</g>
<path d="M42.3426 35.0014C42.3426 36.2469 41.2226 37.0676 39.4171 37.1641V38.0331H38.7508V37.1641C37.2639 37.0966 36.086 36.5462 35.555 35.6386L36.8198 34.7986C37.2446 35.4841 37.9012 35.851 38.7508 35.9379V34.1228L38.1329 34.0359C36.6943 33.8041 35.9991 33.1669 35.9991 32.1145C35.9991 30.9462 37.0322 30.2028 38.7508 30.1255V29.2759H39.4171V30.1255C40.6336 30.1931 41.5991 30.6179 42.2267 31.371L41.0874 32.2786C40.7688 31.7476 40.1991 31.4097 39.4171 31.3131V32.9062L40.0833 32.9931C41.6377 33.2538 42.3426 33.8234 42.3426 35.0014ZM38.7412 32.8097H38.7508V31.2841C38.0074 31.3228 37.5922 31.5738 37.5922 32.0179C37.5922 32.4524 37.8915 32.6648 38.7412 32.8097ZM39.4171 35.9476C40.2281 35.909 40.7108 35.6097 40.7108 35.1172C40.7108 34.5959 40.3729 34.3834 39.5522 34.2386L39.4171 34.2193V35.9476ZM42.9003 37V35.8028C44.0492 35.2524 45.1499 34.6248 45.9127 34.0745C46.6948 33.5048 46.9554 33.0414 46.9554 32.4138C46.9554 31.8152 46.5789 31.4386 45.8548 31.4386C45.121 31.4386 44.6865 31.8248 44.6865 32.4814C44.6865 32.5972 44.6961 32.7421 44.7348 32.9159L42.9679 32.7517C42.9389 32.5972 42.9292 32.4524 42.9292 32.3076C42.9292 30.9655 44.1458 30.1448 45.9223 30.1448C47.6892 30.1448 48.7899 30.8883 48.7899 32.2883C48.7899 33.2248 48.3458 33.9103 47.4382 34.5766C46.8782 34.9628 46.1734 35.3297 45.343 35.6772H48.8865V37H42.9003ZM52.8532 37.1834C50.8449 37.1834 49.5318 35.8897 49.5318 33.669C49.5318 31.4386 50.8449 30.1448 52.8532 30.1448C54.8711 30.1448 56.1843 31.4386 56.1843 33.669C56.1843 35.8897 54.8711 37.1834 52.8532 37.1834ZM52.8532 35.909C53.7898 35.909 54.398 35.1655 54.398 33.669C54.398 32.1628 53.7898 31.4193 52.8532 31.4193C51.9263 31.4193 51.3084 32.1628 51.3084 33.669C51.3084 35.1655 51.9263 35.909 52.8532 35.909ZM58.7372 35.4166V37H56.922V35.4166H58.7372ZM62.7956 37.1834C60.7873 37.1834 59.4742 35.8897 59.4742 33.669C59.4742 31.4386 60.7873 30.1448 62.7956 30.1448C64.8135 30.1448 66.1266 31.4386 66.1266 33.669C66.1266 35.8897 64.8135 37.1834 62.7956 37.1834ZM62.7956 35.909C63.7321 35.909 64.3404 35.1655 64.3404 33.669C64.3404 32.1628 63.7321 31.4193 62.7956 31.4193C61.8687 31.4193 61.2507 32.1628 61.2507 33.669C61.2507 35.1655 61.8687 35.909 62.7956 35.909ZM70.2088 37.1834C68.2006 37.1834 66.8874 35.8897 66.8874 33.669C66.8874 31.4386 68.2006 30.1448 70.2088 30.1448C72.2268 30.1448 73.5399 31.4386 73.5399 33.669C73.5399 35.8897 72.2268 37.1834 70.2088 37.1834ZM70.2088 35.909C71.1454 35.909 71.7537 35.1655 71.7537 33.669C71.7537 32.1628 71.1454 31.4193 70.2088 31.4193C69.2819 31.4193 68.664 32.1628 68.664 33.669C68.664 35.1655 69.2819 35.909 70.2088 35.909Z" fill="white"/>
<path d="M15.0217 53.6552H14.6668V51.0845H15.0217V53.6552ZM15.4653 52.1055V51.8448H15.8998V51.3705L16.222 51.2366V51.8448H16.8665V52.1055H16.222V53.0397C16.222 53.2895 16.3379 53.3945 16.5805 53.3945C16.6891 53.3945 16.7796 53.38 16.8701 53.3583V53.6443C16.7832 53.6733 16.6565 53.6914 16.5189 53.6914C16.0084 53.6914 15.8998 53.4017 15.8998 53.0578V52.1055H15.4653ZM19.3666 53.7095C18.7511 53.7095 18.3492 53.3329 18.3492 52.75C18.3492 52.1598 18.7475 51.7905 19.3739 51.7905C19.9061 51.7905 20.232 52.0223 20.3189 52.4604L19.9821 52.5002C19.917 52.2141 19.707 52.0657 19.3666 52.0657C18.9394 52.0657 18.6895 52.3155 18.6895 52.7464C18.6895 53.1809 18.9466 53.4343 19.3739 53.4343C19.7033 53.4343 19.9133 53.2895 20.0002 53.0035L20.3152 53.0541C20.2247 53.4669 19.8735 53.7095 19.3666 53.7095ZM21.3867 53.7095C20.9414 53.7095 20.6517 53.5031 20.6517 53.1736C20.6517 52.9998 20.7314 52.8514 20.8762 52.7609C21.0102 52.6812 21.1839 52.6269 21.5496 52.5943L22.2231 52.5436V52.511C22.2231 52.196 22.0312 52.0476 21.6619 52.0476C21.3107 52.0476 21.0934 52.1816 21.0608 52.4278H20.7133C20.7531 52.0476 21.1152 51.7905 21.6619 51.7905C22.2557 51.7905 22.5453 52.0331 22.5453 52.5473V53.0252C22.5453 53.3329 22.5598 53.4923 22.5996 53.6552H22.2665C22.2484 53.5538 22.2412 53.4307 22.2376 53.304C22.1 53.5647 21.8139 53.7095 21.3867 53.7095ZM21.4736 53.456C21.9189 53.456 22.2267 53.2243 22.2267 52.8623V52.7717L21.4917 52.8405C21.1188 52.8804 20.992 52.9745 20.992 53.1664C20.992 53.351 21.1658 53.456 21.4736 53.456ZM23.1873 53.6552V51.8448H23.4951V52.2395C23.6436 51.939 23.9079 51.7869 24.2844 51.7869C24.8022 51.7869 25.0773 52.0766 25.0773 52.6269V53.6552H24.7587V52.674C24.7587 52.2685 24.5668 52.0657 24.183 52.0657C23.7703 52.0657 23.506 52.3336 23.506 52.7645V53.6552H23.1873ZM26.6067 52.1055V51.8448H27.0412V51.3705L27.3634 51.2366V51.8448H28.0079V52.1055H27.3634V53.0397C27.3634 53.2895 27.4793 53.3945 27.7219 53.3945C27.8305 53.3945 27.921 53.38 28.0115 53.3583V53.6443C27.9246 53.6733 27.7979 53.6914 27.6603 53.6914C27.1498 53.6914 27.0412 53.4017 27.0412 53.0578V52.1055H26.6067ZM29.0206 53.7095C28.5752 53.7095 28.2856 53.5031 28.2856 53.1736C28.2856 52.9998 28.3652 52.8514 28.51 52.7609C28.644 52.6812 28.8178 52.6269 29.1835 52.5943L29.8569 52.5436V52.511C29.8569 52.196 29.665 52.0476 29.2957 52.0476C28.9445 52.0476 28.7273 52.1816 28.6947 52.4278H28.3471C28.3869 52.0476 28.749 51.7905 29.2957 51.7905C29.8895 51.7905 30.1792 52.0331 30.1792 52.5473V53.0252C30.1792 53.3329 30.1937 53.4923 30.2335 53.6552H29.9004C29.8823 53.5538 29.875 53.4307 29.8714 53.304C29.7338 53.5647 29.4478 53.7095 29.0206 53.7095ZM29.1075 53.456C29.5528 53.456 29.8606 53.2243 29.8606 52.8623V52.7717L29.1256 52.8405C28.7526 52.8804 28.6259 52.9745 28.6259 53.1664C28.6259 53.351 28.7997 53.456 29.1075 53.456ZM32.3164 53.6552L31.6574 52.7174L31.165 53.1048V53.6552H30.8464V51.0302H31.165V52.7536L32.2222 51.8448H32.664L31.9036 52.5147L32.7147 53.6552H32.3164ZM34.8483 52.6631V52.8441H33.1755C33.1864 53.2062 33.4507 53.4343 33.8888 53.4343C34.211 53.4343 34.4391 53.3112 34.5586 53.0759L34.8265 53.199C34.6527 53.5357 34.3341 53.7095 33.8743 53.7095C33.2407 53.7095 32.8496 53.3691 32.8496 52.7717C32.8496 52.1454 33.2479 51.7905 33.8598 51.7905C34.4753 51.7905 34.8483 52.1019 34.8483 52.6631ZM34.5188 52.5943V52.569C34.5152 52.2214 34.24 52.0331 33.8562 52.0331C33.4543 52.0331 33.1936 52.2504 33.1755 52.5943H34.5188ZM37.2839 53.7095C36.7372 53.7095 36.4946 53.4235 36.4946 52.9021V51.8448H36.8168V52.8695C36.8168 53.2967 37.0703 53.4379 37.3455 53.4379C37.8125 53.4379 38.0298 53.1012 38.0298 52.7464V51.8448H38.352V53.6552H38.0406V53.2497C37.9248 53.5357 37.6351 53.7095 37.2839 53.7095ZM39.0491 54.3612V51.8448H39.3568V52.1997C39.5053 51.939 39.7986 51.7905 40.1498 51.7905C40.7037 51.7905 41.073 52.1707 41.073 52.7536C41.073 53.3257 40.682 53.7095 40.1317 53.7095C39.7841 53.7095 39.4872 53.5502 39.3677 53.3474V54.3612H39.0491ZM40.0448 53.4307C40.472 53.4307 40.7363 53.1773 40.7363 52.7536C40.7363 52.3264 40.4829 52.0693 40.0665 52.0693C39.6501 52.0693 39.3605 52.3228 39.3605 52.7102V52.7935C39.3605 53.1809 39.632 53.4307 40.0448 53.4307ZM42.4755 52.1055V51.8448H42.91V51.3705L43.2322 51.2366V51.8448H43.8767V52.1055H43.2322V53.0397C43.2322 53.2895 43.3481 53.3945 43.5907 53.3945C43.6993 53.3945 43.7898 53.38 43.8803 53.3583V53.6443C43.7934 53.6733 43.6667 53.6914 43.5291 53.6914C43.0186 53.6914 42.91 53.4017 42.91 53.0578V52.1055H42.4755ZM45.1362 53.7095C44.517 53.7095 44.1006 53.3366 44.1006 52.75C44.1006 52.1635 44.517 51.7905 45.1362 51.7905C45.7553 51.7905 46.1681 52.1635 46.1681 52.75C46.1681 53.3366 45.7553 53.7095 45.1362 53.7095ZM45.1362 53.4343C45.5634 53.4343 45.8313 53.1881 45.8313 52.75C45.8313 52.3119 45.5634 52.0657 45.1362 52.0657C44.7089 52.0657 44.441 52.3119 44.441 52.75C44.441 53.1881 44.7089 53.4343 45.1362 53.4343ZM48.7184 53.724C48.1717 53.724 47.7915 53.456 47.6974 53.0179L48.0449 52.9673C48.1137 53.2497 48.3491 53.4416 48.7292 53.4416C49.1565 53.4416 49.4099 53.2135 49.4099 52.8224C49.4099 52.4314 49.1746 52.1997 48.7582 52.1997C48.407 52.1997 48.2006 52.3517 48.0848 52.6378L47.7589 52.6088L47.9218 51.1388H49.6163V51.4285H48.1789L48.0739 52.2902C48.2115 52.0548 48.4867 51.9209 48.8524 51.9209C49.4136 51.9209 49.7503 52.2467 49.7503 52.8116C49.7503 53.3619 49.3484 53.724 48.7184 53.724ZM52.557 53.7095C52.1732 53.7095 51.9125 53.5502 51.7822 53.3257L51.7351 53.6552H51.4744V51.0302H51.793V52.1852C51.927 51.9498 52.2167 51.7905 52.5751 51.7905C53.1363 51.7905 53.4984 52.1816 53.4984 52.75C53.4984 53.3148 53.1146 53.7095 52.557 53.7095ZM52.4665 53.4307C52.8937 53.4307 53.1617 53.1664 53.1617 52.75C53.1617 52.3336 52.9118 52.0693 52.481 52.0693C52.0646 52.0693 51.7858 52.3191 51.7858 52.7066V52.7971C51.7858 53.1773 52.0537 53.4307 52.4665 53.4307ZM54.7262 53.7095C54.1794 53.7095 53.9368 53.4235 53.9368 52.9021V51.8448H54.2591V52.8695C54.2591 53.2967 54.5125 53.4379 54.7877 53.4379C55.2548 53.4379 55.472 53.1012 55.472 52.7464V51.8448H55.7943V53.6552H55.4829V53.2497C55.367 53.5357 55.0774 53.7095 54.7262 53.7095ZM57.2951 53.7095C56.7593 53.7095 56.4298 53.4995 56.2958 53.1229L56.5963 53.0252C56.6941 53.2967 56.9367 53.4488 57.3205 53.4488C57.6463 53.4488 57.8201 53.351 57.8201 53.1591C57.8201 52.989 57.7296 52.9129 57.4906 52.8948L56.9584 52.855C56.5674 52.8188 56.3755 52.6305 56.3755 52.3373C56.3755 51.9969 56.6868 51.7905 57.201 51.7905C57.7006 51.7905 58.0337 51.9933 58.1315 52.3119L57.831 52.4133C57.7368 52.1816 57.5377 52.044 57.1829 52.044C56.8715 52.044 56.6868 52.1454 56.6868 52.3264C56.6868 52.4748 56.8027 52.5617 57.0344 52.5835L57.5739 52.6233C57.9758 52.6595 58.1351 52.8405 58.1351 53.1338C58.1351 53.485 57.8636 53.7095 57.2951 53.7095ZM58.6404 51.5117V51.1098H59.0134V51.5117H58.6404ZM58.6694 53.6552V51.8448H58.988V53.6552H58.6694ZM59.6913 53.6552V51.8448H59.999V52.2395C60.1475 51.939 60.4118 51.7869 60.7883 51.7869C61.3061 51.7869 61.5813 52.0766 61.5813 52.6269V53.6552H61.2626V52.674C61.2626 52.2685 61.0707 52.0657 60.6869 52.0657C60.2742 52.0657 60.0099 52.3336 60.0099 52.7645V53.6552H59.6913ZM64.0295 52.6631V52.8441H62.3567C62.3676 53.2062 62.6319 53.4343 63.07 53.4343C63.3922 53.4343 63.6203 53.3112 63.7398 53.0759L64.0077 53.199C63.8339 53.5357 63.5153 53.7095 63.0555 53.7095C62.4219 53.7095 62.0308 53.3691 62.0308 52.7717C62.0308 52.1454 62.4291 51.7905 63.041 51.7905C63.6565 51.7905 64.0295 52.1019 64.0295 52.6631ZM63.7 52.5943V52.569C63.6964 52.2214 63.4212 52.0331 63.0374 52.0331C62.6355 52.0331 62.3748 52.2504 62.3567 52.5943H63.7ZM65.3603 53.7095C64.8245 53.7095 64.495 53.4995 64.361 53.1229L64.6616 53.0252C64.7593 53.2967 65.0019 53.4488 65.3857 53.4488C65.7116 53.4488 65.8853 53.351 65.8853 53.1591C65.8853 52.989 65.7948 52.9129 65.5559 52.8948L65.0236 52.855C64.6326 52.8188 64.4407 52.6305 64.4407 52.3373C64.4407 51.9969 64.7521 51.7905 65.2662 51.7905C65.7659 51.7905 66.099 51.9933 66.1967 52.3119L65.8962 52.4133C65.8021 52.1816 65.6029 52.044 65.2481 52.044C64.9367 52.044 64.7521 52.1454 64.7521 52.3264C64.7521 52.4748 64.8679 52.5617 65.0997 52.5835L65.6391 52.6233C66.041 52.6595 66.2003 52.8405 66.2003 53.1338C66.2003 53.485 65.9288 53.7095 65.3603 53.7095ZM67.5172 53.7095C66.9813 53.7095 66.6519 53.4995 66.5179 53.1229L66.8184 53.0252C66.9162 53.2967 67.1588 53.4488 67.5425 53.4488C67.8684 53.4488 68.0422 53.351 68.0422 53.1591C68.0422 52.989 67.9517 52.9129 67.7127 52.8948L67.1805 52.855C66.7894 52.8188 66.5975 52.6305 66.5975 52.3373C66.5975 51.9969 66.9089 51.7905 67.4231 51.7905C67.9227 51.7905 68.2558 51.9933 68.3536 52.3119L68.0531 52.4133C67.9589 52.1816 67.7598 52.044 67.405 52.044C67.0936 52.044 66.9089 52.1454 66.9089 52.3264C66.9089 52.4748 67.0248 52.5617 67.2565 52.5835L67.796 52.6233C68.1979 52.6595 68.3572 52.8405 68.3572 53.1338C68.3572 53.485 68.0856 53.7095 67.5172 53.7095ZM70.8145 53.7095C70.2678 53.7095 69.884 53.3185 69.884 52.75C69.884 52.1852 70.275 51.7905 70.8435 51.7905C71.1766 51.7905 71.4228 51.9064 71.5893 52.149V51.0302H71.908V53.6552H71.6002V53.304C71.4481 53.5683 71.1838 53.7095 70.8145 53.7095ZM70.9014 53.4307C71.3142 53.4307 71.5966 53.1773 71.5966 52.7971V52.7138C71.5966 52.3228 71.3106 52.0657 70.8869 52.0657C70.4742 52.0657 70.2207 52.3228 70.2207 52.75C70.2207 53.1736 70.4814 53.4307 70.9014 53.4307ZM73.1937 53.7095C72.7483 53.7095 72.4587 53.5031 72.4587 53.1736C72.4587 52.9998 72.5383 52.8514 72.6832 52.7609C72.8171 52.6812 72.9909 52.6269 73.3566 52.5943L74.0301 52.5436V52.511C74.0301 52.196 73.8382 52.0476 73.4689 52.0476C73.1176 52.0476 72.9004 52.1816 72.8678 52.4278H72.5202C72.5601 52.0476 72.9221 51.7905 73.4689 51.7905C74.0626 51.7905 74.3523 52.0331 74.3523 52.5473V53.0252C74.3523 53.3329 74.3668 53.4923 74.4066 53.6552H74.0735C74.0554 53.5538 74.0482 53.4307 74.0445 53.304C73.907 53.5647 73.6209 53.7095 73.1937 53.7095ZM73.2806 53.456C73.7259 53.456 74.0337 53.2243 74.0337 52.8623V52.7717L73.2987 52.8405C72.9257 52.8804 72.799 52.9745 72.799 53.1664C72.799 53.351 72.9728 53.456 73.2806 53.456ZM74.9272 54.3902C74.8693 54.3902 74.8041 54.3866 74.739 54.3757V54.0933C74.7969 54.1005 74.8476 54.1041 74.8946 54.1041C75.1807 54.1041 75.3545 53.9774 75.4486 53.7421L75.4884 53.6443L74.5941 51.8448H74.9634L75.5898 53.1736C75.6188 53.2424 75.6369 53.3004 75.6477 53.3438H75.6514C75.6658 53.3004 75.684 53.2424 75.7093 53.1736L76.2958 51.8448H76.6507L75.7672 53.771C75.5608 54.2273 75.3002 54.3902 74.9272 54.3902ZM77.7216 53.7095C77.1857 53.7095 76.8563 53.4995 76.7223 53.1229L77.0228 53.0252C77.1206 53.2967 77.3632 53.4488 77.7469 53.4488C78.0728 53.4488 78.2466 53.351 78.2466 53.1591C78.2466 52.989 78.1561 52.9129 77.9171 52.8948L77.3849 52.855C76.9938 52.8188 76.8019 52.6305 76.8019 52.3373C76.8019 51.9969 77.1133 51.7905 77.6275 51.7905C78.1271 51.7905 78.4602 51.9933 78.558 52.3119L78.2575 52.4133C78.1633 52.1816 77.9642 52.044 77.6094 52.044C77.298 52.044 77.1133 52.1454 77.1133 52.3264C77.1133 52.4748 77.2292 52.5617 77.4609 52.5835L78.0004 52.6233C78.4023 52.6595 78.5616 52.8405 78.5616 53.1338C78.5616 53.485 78.2901 53.7095 77.7216 53.7095ZM81.3846 51.8448V52.1055H80.7619V53.6552H80.4432V52.1055H80.0124V51.8448H80.4432V51.6276C80.4432 51.2293 80.6677 51.0012 81.0841 51.0012C81.2 51.0012 81.3013 51.0157 81.3846 51.0338V51.309C81.2977 51.2909 81.1963 51.2836 81.1094 51.2836C80.8632 51.2836 80.7619 51.3923 80.7619 51.6457V51.8448H81.3846ZM82.5382 53.7095C81.919 53.7095 81.5027 53.3366 81.5027 52.75C81.5027 52.1635 81.919 51.7905 82.5382 51.7905C83.1573 51.7905 83.5701 52.1635 83.5701 52.75C83.5701 53.3366 83.1573 53.7095 82.5382 53.7095ZM82.5382 53.4343C82.9654 53.4343 83.2333 53.1881 83.2333 52.75C83.2333 52.3119 82.9654 52.0657 82.5382 52.0657C82.1109 52.0657 81.843 52.3119 81.843 52.75C81.843 53.1881 82.1109 53.4343 82.5382 53.4343ZM84.3748 52.3047C84.4689 52.0114 84.7079 51.7941 85.0301 51.7941C85.0808 51.7941 85.1243 51.7978 85.1677 51.805V52.1164C85.1315 52.1128 85.0989 52.1091 85.0555 52.1091C84.8274 52.1091 84.6862 52.1743 84.5848 52.2829C84.4218 52.4495 84.3965 52.6848 84.3965 52.9202V53.6552H84.0779V51.8448H84.3748V52.3047ZM86.486 52.1055V51.8448H86.9205V51.3705L87.2427 51.2366V51.8448H87.8872V52.1055H87.2427V53.0397C87.2427 53.2895 87.3586 53.3945 87.6011 53.3945C87.7098 53.3945 87.8003 53.38 87.8908 53.3583V53.6443C87.8039 53.6733 87.6772 53.6914 87.5396 53.6914C87.0291 53.6914 86.9205 53.4017 86.9205 53.0578V52.1055H86.486ZM88.3991 53.6552V51.0302H88.7177V52.2286C88.8625 51.9426 89.1305 51.7869 89.4889 51.7869C90.0139 51.7869 90.2891 52.0947 90.2891 52.6776V53.6552H89.9705V52.7102C89.9705 52.2866 89.7713 52.0657 89.3875 52.0657C88.9784 52.0657 88.7177 52.3336 88.7177 52.7645V53.6552H88.3991ZM90.8943 51.5117V51.1098H91.2672V51.5117H90.8943ZM90.9232 53.6552V51.8448H91.2418V53.6552H90.9232ZM92.7489 53.7095C92.213 53.7095 91.8835 53.4995 91.7496 53.1229L92.0501 53.0252C92.1479 53.2967 92.3904 53.4488 92.7742 53.4488C93.1001 53.4488 93.2739 53.351 93.2739 53.1591C93.2739 52.989 93.1834 52.9129 92.9444 52.8948L92.4122 52.855C92.0211 52.8188 91.8292 52.6305 91.8292 52.3373C91.8292 51.9969 92.1406 51.7905 92.6547 51.7905C93.1544 51.7905 93.4875 51.9933 93.5853 52.3119L93.2847 52.4133C93.1906 52.1816 92.9915 52.044 92.6366 52.044C92.3253 52.044 92.1406 52.1454 92.1406 52.3264C92.1406 52.4748 92.2565 52.5617 92.4882 52.5835L93.0277 52.6233C93.4296 52.6595 93.5889 52.8405 93.5889 53.1338C93.5889 53.485 93.3173 53.7095 92.7489 53.7095ZM95.0179 52.1055V51.8448H95.4524V51.3705L95.7746 51.2366V51.8448H96.4191V52.1055H95.7746V53.0397C95.7746 53.2895 95.8905 53.3945 96.1331 53.3945C96.2417 53.3945 96.3322 53.38 96.4228 53.3583V53.6443C96.3359 53.6733 96.2091 53.6914 96.0715 53.6914C95.561 53.6914 95.4524 53.4017 95.4524 53.0578V52.1055H95.0179ZM97.6786 53.7095C97.0595 53.7095 96.6431 53.3366 96.6431 52.75C96.6431 52.1635 97.0595 51.7905 97.6786 51.7905C98.2977 51.7905 98.7105 52.1635 98.7105 52.75C98.7105 53.3366 98.2977 53.7095 97.6786 53.7095ZM97.6786 53.4343C98.1058 53.4343 98.3738 53.1881 98.3738 52.75C98.3738 52.3119 98.1058 52.0657 97.6786 52.0657C97.2514 52.0657 96.9834 52.3119 96.9834 52.75C96.9834 53.1881 97.2514 53.4343 97.6786 53.4343ZM36.3645 58.7095C35.9191 58.7095 35.6295 58.5031 35.6295 58.1736C35.6295 57.9998 35.7091 57.8514 35.854 57.7609C35.9879 57.6812 36.1617 57.6269 36.5274 57.5943L37.2009 57.5436V57.511C37.2009 57.196 37.009 57.0476 36.6396 57.0476C36.2884 57.0476 36.0712 57.1816 36.0386 57.4278H35.691C35.7309 57.0476 36.0929 56.7905 36.6396 56.7905C37.2334 56.7905 37.5231 57.0331 37.5231 57.5473V58.0252C37.5231 58.3329 37.5376 58.4923 37.5774 58.6552H37.2443C37.2262 58.5538 37.219 58.4307 37.2153 58.304C37.0778 58.5647 36.7917 58.7095 36.3645 58.7095ZM36.4514 58.456C36.8967 58.456 37.2045 58.2243 37.2045 57.8623V57.7717L36.4695 57.8405C36.0965 57.8804 35.9698 57.9745 35.9698 58.1664C35.9698 58.351 36.1436 58.456 36.4514 58.456ZM38.462 57.3047C38.5562 57.0114 38.7951 56.7941 39.1174 56.7941C39.1681 56.7941 39.2115 56.7978 39.2549 56.805V57.1164C39.2187 57.1128 39.1862 57.1091 39.1427 57.1091C38.9146 57.1091 38.7734 57.1743 38.672 57.2829C38.5091 57.4495 38.4837 57.6848 38.4837 57.9202V58.6552H38.1651V56.8448H38.462V57.3047ZM39.9754 57.3047C40.0695 57.0114 40.3085 56.7941 40.6307 56.7941C40.6814 56.7941 40.7248 56.7978 40.7683 56.805V57.1164C40.7321 57.1128 40.6995 57.1091 40.656 57.1091C40.4279 57.1091 40.2867 57.1743 40.1854 57.2829C40.0224 57.4495 39.9971 57.6848 39.9971 57.9202V58.6552H39.6785V56.8448H39.9754V57.3047ZM41.1628 56.5117V56.1098H41.5358V56.5117H41.1628ZM41.1918 58.6552V56.8448H41.5104V58.6552H41.1918ZM42.7314 58.6552L41.8842 56.8448H42.239L42.84 58.1555C42.869 58.2279 42.8907 58.2967 42.9052 58.3583H42.9124C42.9305 58.2967 42.9486 58.2279 42.9776 58.1555L43.5786 56.8448H43.9335L43.0862 58.6552H42.7314ZM46.0604 57.6631V57.8441H44.3876C44.3985 58.2062 44.6628 58.4343 45.1009 58.4343C45.4231 58.4343 45.6512 58.3112 45.7707 58.0759L46.0386 58.199C45.8649 58.5357 45.5462 58.7095 45.0864 58.7095C44.4528 58.7095 44.0618 58.3691 44.0618 57.7717C44.0618 57.1454 44.46 56.7905 45.0719 56.7905C45.6874 56.7905 46.0604 57.1019 46.0604 57.6631ZM45.7309 57.5943V57.569C45.7273 57.2214 45.4521 57.0331 45.0683 57.0331C44.6664 57.0331 44.4057 57.2504 44.3876 57.5943H45.7309ZM47.7465 56.5117V56.1098H48.1195V56.5117H47.7465ZM47.7755 58.6552V56.8448H48.0941V58.6552H47.7755ZM48.7974 58.6552V56.8448H49.1051V57.2395C49.2536 56.939 49.5179 56.7869 49.8944 56.7869C50.4122 56.7869 50.6874 57.0766 50.6874 57.6269V58.6552H50.3687V57.674C50.3687 57.2685 50.1768 57.0657 49.793 57.0657C49.3803 57.0657 49.116 57.3336 49.116 57.7645V58.6552H48.7974ZM52.5136 59.3902C52.4557 59.3902 52.3905 59.3866 52.3253 59.3757V59.0933C52.3833 59.1005 52.4339 59.1041 52.481 59.1041C52.7671 59.1041 52.9408 58.9774 53.035 58.7421L53.0748 58.6443L52.1805 56.8448H52.5498L53.1762 58.1736C53.2052 58.2424 53.2233 58.3004 53.2341 58.3438H53.2377C53.2522 58.3004 53.2703 58.2424 53.2957 58.1736L53.8822 56.8448H54.2371L53.3536 58.771C53.1472 59.2273 52.8865 59.3902 52.5136 59.3902ZM55.3971 58.7095C54.778 58.7095 54.3616 58.3366 54.3616 57.75C54.3616 57.1635 54.778 56.7905 55.3971 56.7905C56.0163 56.7905 56.429 57.1635 56.429 57.75C56.429 58.3366 56.0163 58.7095 55.3971 58.7095ZM55.3971 58.4343C55.8244 58.4343 56.0923 58.1881 56.0923 57.75C56.0923 57.3119 55.8244 57.0657 55.3971 57.0657C54.9699 57.0657 54.702 57.3119 54.702 57.75C54.702 58.1881 54.9699 58.4343 55.3971 58.4343ZM57.6574 58.7095C57.1106 58.7095 56.868 58.4235 56.868 57.9021V56.8448H57.1903V57.8695C57.1903 58.2967 57.4437 58.4379 57.7189 58.4379C58.186 58.4379 58.4032 58.1012 58.4032 57.7464V56.8448H58.7255V58.6552H58.4141V58.2497C58.2982 58.5357 58.0086 58.7095 57.6574 58.7095ZM59.7194 57.3047C59.8136 57.0114 60.0525 56.7941 60.3748 56.7941C60.4255 56.7941 60.4689 56.7978 60.5124 56.805V57.1164C60.4761 57.1128 60.4436 57.1091 60.4001 57.1091C60.172 57.1091 60.0308 57.1743 59.9294 57.2829C59.7665 57.4495 59.7411 57.6848 59.7411 57.9202V58.6552H59.4225V56.8448H59.7194V57.3047ZM62.6887 58.7095C62.2434 58.7095 61.9537 58.5031 61.9537 58.1736C61.9537 57.9998 62.0334 57.8514 62.1782 57.7609C62.3122 57.6812 62.486 57.6269 62.8517 57.5943L63.5251 57.5436V57.511C63.5251 57.196 63.3332 57.0476 62.9639 57.0476C62.6127 57.0476 62.3955 57.1816 62.3629 57.4278H62.0153C62.0551 57.0476 62.4172 56.7905 62.9639 56.7905C63.5577 56.7905 63.8474 57.0331 63.8474 57.5473V58.0252C63.8474 58.3329 63.8618 58.4923 63.9017 58.6552H63.5686C63.5505 58.5538 63.5432 58.4307 63.5396 58.304C63.402 58.5647 63.116 58.7095 62.6887 58.7095ZM62.7756 58.456C63.221 58.456 63.5287 58.2243 63.5287 57.8623V57.7717L62.7937 57.8405C62.4208 57.8804 62.2941 57.9745 62.2941 58.1664C62.2941 58.351 62.4679 58.456 62.7756 58.456ZM65.3041 58.7095C64.6886 58.7095 64.2867 58.3329 64.2867 57.75C64.2867 57.1598 64.685 56.7905 65.3114 56.7905C65.8436 56.7905 66.1695 57.0223 66.2564 57.4604L65.9196 57.5002C65.8545 57.2141 65.6445 57.0657 65.3041 57.0657C64.8769 57.0657 64.627 57.3155 64.627 57.7464C64.627 58.1809 64.8841 58.4343 65.3114 58.4343C65.6408 58.4343 65.8508 58.2895 65.9377 58.0035L66.2527 58.0541C66.1622 58.4669 65.811 58.7095 65.3041 58.7095ZM67.6236 58.7095C67.0081 58.7095 66.6062 58.3329 66.6062 57.75C66.6062 57.1598 67.0045 56.7905 67.6309 56.7905C68.1631 56.7905 68.489 57.0223 68.5759 57.4604L68.2391 57.5002C68.174 57.2141 67.964 57.0657 67.6236 57.0657C67.1964 57.0657 66.9465 57.3155 66.9465 57.7464C66.9465 58.1809 67.2036 58.4343 67.6309 58.4343C67.9603 58.4343 68.1703 58.2895 68.2572 58.0035L68.5722 58.0541C68.4817 58.4669 68.1305 58.7095 67.6236 58.7095ZM69.9612 58.7095C69.3421 58.7095 68.9257 58.3366 68.9257 57.75C68.9257 57.1635 69.3421 56.7905 69.9612 56.7905C70.5804 56.7905 70.9931 57.1635 70.9931 57.75C70.9931 58.3366 70.5804 58.7095 69.9612 58.7095ZM69.9612 58.4343C70.3885 58.4343 70.6564 58.1881 70.6564 57.75C70.6564 57.3119 70.3885 57.0657 69.9612 57.0657C69.534 57.0657 69.266 57.3119 69.266 57.75C69.266 58.1881 69.534 58.4343 69.9612 58.4343ZM72.2214 58.7095C71.6747 58.7095 71.4321 58.4235 71.4321 57.9021V56.8448H71.7544V57.8695C71.7544 58.2967 72.0078 58.4379 72.283 58.4379C72.7501 58.4379 72.9673 58.1012 72.9673 57.7464V56.8448H73.2895V58.6552H72.9782V58.2497C72.8623 58.5357 72.5726 58.7095 72.2214 58.7095ZM73.9866 58.6552V56.8448H74.2944V57.2395C74.4428 56.939 74.7071 56.7869 75.0837 56.7869C75.6014 56.7869 75.8766 57.0766 75.8766 57.6269V58.6552H75.558V57.674C75.558 57.2685 75.3661 57.0657 74.9823 57.0657C74.5695 57.0657 74.3052 57.3336 74.3052 57.7645V58.6552H73.9866ZM76.1543 57.1055V56.8448H76.5888V56.3705L76.911 56.2366V56.8448H77.5555V57.1055H76.911V58.0397C76.911 58.2895 77.0269 58.3945 77.2694 58.3945C77.3781 58.3945 77.4686 58.38 77.5591 58.3583V58.6443C77.4722 58.6733 77.3455 58.6914 77.2079 58.6914C76.6974 58.6914 76.5888 58.4017 76.5888 58.0578V57.1055H76.1543Z" fill="white"/>
<g clip-path="url(#clip2_1041_13052)">
<path d="M4.82758 91.5345C4.82758 87.8685 7.79948 84.8966 11.4655 84.8966H101.681C105.347 84.8966 108.319 87.8685 108.319 91.5345C108.319 95.2005 105.347 98.1724 101.681 98.1724H11.4655C7.79948 98.1724 4.82758 95.2005 4.82758 91.5345Z" fill="white"/>
<path d="M46.0024 93.5173L45.1576 90.5181H45.9475L46.4122 92.4612C46.4333 92.5584 46.4502 92.6387 46.4502 92.7231H46.4671C46.4713 92.6429 46.4966 92.5542 46.522 92.4612L47.0627 90.5181H47.8653L48.4059 92.4612C48.4355 92.5542 48.4566 92.6429 48.4651 92.7231H48.4778C48.482 92.6387 48.4989 92.5584 48.52 92.4612L48.9847 90.5181H49.7746L48.9297 93.5173H48.0427L47.5147 91.5446C47.4935 91.4686 47.4809 91.3925 47.4724 91.3123H47.4555C47.4513 91.3925 47.4344 91.4686 47.4175 91.5446L46.8853 93.5173H46.0024ZM50.1509 91.0968V90.4674H50.9281V91.0968H50.1509ZM50.1635 93.5173V91.4052H50.9112V93.5173H50.1635ZM51.2426 91.8868V91.4052H51.7157V90.9025L52.4591 90.6322V91.4052H53.1392V91.8868H52.4591V92.6175C52.4591 92.8625 52.5858 92.9808 52.8477 92.9808C52.9745 92.9808 53.0674 92.9639 53.1392 92.947V93.5004C52.9956 93.5426 52.8477 93.5637 52.645 93.5637C52.0282 93.5637 51.7157 93.3145 51.7157 92.7738V91.8868H51.2426ZM53.6063 93.5173V90.4548H54.354V91.8065C54.5102 91.5024 54.8017 91.3376 55.1903 91.3376C55.7733 91.3376 56.0901 91.6924 56.0901 92.3514V93.5173H55.3466V92.4232C55.3466 92.0684 55.1861 91.8783 54.8735 91.8783C54.5398 91.8783 54.354 92.1022 54.354 92.495V93.5173H53.6063ZM57.5291 93.5806C56.9082 93.5806 56.49 93.1329 56.49 92.457C56.49 91.7896 56.9208 91.3418 57.5629 91.3418C57.922 91.3418 58.1838 91.4601 58.3486 91.6924V90.4548H59.092V93.5173H58.3782V93.1329C58.2219 93.4117 57.9177 93.5806 57.5291 93.5806ZM57.8121 93.0864C58.1416 93.0864 58.3655 92.8625 58.3655 92.5204V92.4063C58.3655 92.0515 58.1416 91.8361 57.8037 91.8361C57.4615 91.8361 57.2588 92.0642 57.2588 92.4528C57.2588 92.8414 57.47 93.0864 57.8121 93.0864ZM60.4135 91.9797C60.5233 91.5953 60.8063 91.3545 61.2203 91.3545C61.2879 91.3545 61.3217 91.3587 61.3681 91.363V92.0304C61.2963 92.0177 61.233 92.0135 61.1569 92.0135C60.9415 92.0135 60.781 92.0684 60.6796 92.1655C60.5318 92.3049 60.4853 92.5077 60.4853 92.7358V93.5173H59.7376V91.4052H60.4135V91.9797ZM62.4033 93.5806C61.8669 93.5806 61.5374 93.3356 61.5374 92.9343C61.5374 92.7316 61.6261 92.5668 61.7908 92.4612C61.9387 92.3641 62.1583 92.3049 62.5216 92.2669L63.2439 92.2036V92.1444C63.2439 91.9037 63.0961 91.7938 62.83 91.7938C62.5596 91.7938 62.3949 91.9079 62.3695 92.1106H61.6008C61.6599 91.6333 62.133 91.3418 62.83 91.3418C63.641 91.3418 63.9958 91.6333 63.9958 92.2585V92.8963C63.9958 93.1624 64.0127 93.3737 64.0465 93.5173H63.3073C63.2904 93.4201 63.2777 93.2807 63.2777 93.1582C63.1552 93.4201 62.8258 93.5806 62.4033 93.5806ZM62.6779 93.1371C63.0243 93.1371 63.2608 92.9512 63.2608 92.664V92.5457L62.7117 92.6091C62.4245 92.6429 62.3062 92.7274 62.3062 92.8837C62.3062 93.0399 62.4456 93.1371 62.6779 93.1371ZM64.9105 93.5173L64.2219 91.4052H64.9485L65.2822 92.6809C65.2991 92.7443 65.3117 92.8161 65.3244 92.9048H65.3329C65.3455 92.8203 65.3667 92.74 65.3836 92.6809L65.7637 91.4052H66.4649L66.8451 92.6809C66.8662 92.74 66.8873 92.8203 66.8958 92.9048H66.9042C66.9169 92.8161 66.9338 92.7443 66.9465 92.6809L67.2802 91.4052H68.011L67.3224 93.5173H66.5536L66.1692 92.2965C66.1481 92.2205 66.127 92.136 66.1228 92.0726H66.1101C66.1017 92.136 66.0848 92.2205 66.0594 92.2965L65.6792 93.5173H64.9105Z" fill="#262626"/>
</g>
<path d="M30.4666 14L29.3804 10.144H30.396L30.9934 12.6422C31.0205 12.7672 31.0423 12.8703 31.0423 12.979H31.064C31.0694 12.8758 31.102 12.7617 31.1346 12.6422L31.8298 10.144H32.8617L33.5568 12.6422C33.5948 12.7617 33.622 12.8758 33.6329 12.979H33.6492C33.6546 12.8703 33.6763 12.7672 33.7035 12.6422L34.3009 10.144H35.3165L34.2303 14H33.0898L32.4109 11.4637C32.3837 11.3659 32.3674 11.2682 32.3566 11.165H32.3348C32.3294 11.2682 32.3077 11.3659 32.286 11.4637L31.6017 14H30.4666ZM35.8003 10.888V10.0788H36.7996V10.888H35.8003ZM35.8166 14V11.2845H36.7779V14H35.8166ZM37.2039 11.9036V11.2845H37.8122V10.6382L38.768 10.2906V11.2845H39.6424V11.9036H38.768V12.8432C38.768 13.1582 38.931 13.3103 39.2677 13.3103C39.4306 13.3103 39.5501 13.2885 39.6424 13.2668V13.9783C39.4578 14.0326 39.2677 14.0597 39.007 14.0597C38.2141 14.0597 37.8122 13.7393 37.8122 13.0441V11.9036H37.2039ZM40.243 14V10.0625H41.2043V11.8004C41.4052 11.4094 41.78 11.1976 42.2796 11.1976C43.0291 11.1976 43.4364 11.6538 43.4364 12.501V14H42.4806V12.5934C42.4806 12.1372 42.2742 11.8928 41.8723 11.8928C41.4432 11.8928 41.2043 12.1806 41.2043 12.6857V14H40.243ZM45.2866 14.0815C44.4882 14.0815 43.9506 13.5058 43.9506 12.6368C43.9506 11.7787 44.5045 11.203 45.3301 11.203C45.7917 11.203 46.1284 11.3551 46.3402 11.6538V10.0625H47.2961V14H46.3782V13.5058C46.1773 13.8642 45.7863 14.0815 45.2866 14.0815ZM45.6505 13.446C46.0741 13.446 46.3619 13.1582 46.3619 12.7183V12.5716C46.3619 12.1154 46.0741 11.8384 45.6396 11.8384C45.1997 11.8384 44.939 12.1317 44.939 12.6314C44.939 13.131 45.2106 13.446 45.6505 13.446ZM48.9951 12.0231C49.1363 11.5289 49.5002 11.2193 50.0324 11.2193C50.1193 11.2193 50.1628 11.2247 50.2225 11.2302V12.0883C50.1302 12.072 50.0487 12.0666 49.951 12.0666C49.674 12.0666 49.4676 12.1372 49.3372 12.2621C49.1472 12.4413 49.0874 12.702 49.0874 12.9953V14H48.1261V11.2845H48.9951V12.0231ZM51.5535 14.0815C50.8637 14.0815 50.4401 13.7665 50.4401 13.2505C50.4401 12.9898 50.5542 12.778 50.766 12.6422C50.9561 12.5173 51.2385 12.4413 51.7055 12.3924L52.6343 12.3109V12.2349C52.6343 11.9253 52.4442 11.7841 52.102 11.7841C51.7544 11.7841 51.5426 11.9308 51.51 12.1915H50.5216C50.5976 11.5778 51.2059 11.203 52.102 11.203C53.1448 11.203 53.601 11.5778 53.601 12.3816V13.2016C53.601 13.5438 53.6227 13.8153 53.6661 14H52.7157C52.694 13.8751 52.6777 13.6959 52.6777 13.5384C52.5202 13.8751 52.0966 14.0815 51.5535 14.0815ZM51.9065 13.5112C52.3518 13.5112 52.656 13.2722 52.656 12.9029V12.7509L51.9499 12.8323C51.5806 12.8758 51.4286 12.9844 51.4286 13.1853C51.4286 13.3863 51.6078 13.5112 51.9065 13.5112ZM54.7769 14L53.8916 11.2845H54.8258L55.2548 12.9247C55.2766 13.0061 55.2929 13.0984 55.3091 13.2125H55.32C55.3363 13.1039 55.3635 13.0007 55.3852 12.9247L55.874 11.2845H56.7755L57.2643 12.9247C57.2915 13.0007 57.3186 13.1039 57.3295 13.2125H57.3404C57.3566 13.0984 57.3784 13.0061 57.3947 12.9247L57.8237 11.2845H58.7633L57.878 14H56.8896L56.3954 12.4304C56.3682 12.3327 56.341 12.2241 56.3356 12.1426H56.3193C56.3085 12.2241 56.2867 12.3327 56.2541 12.4304L55.7654 14H54.7769ZM62.9488 14.0815C62.4763 14.0815 62.0961 13.8805 61.9006 13.5655L61.83 14H60.9773V10.0625H61.9386V11.6864C62.1504 11.3877 62.5251 11.203 62.9922 11.203C63.796 11.203 64.3282 11.7787 64.3282 12.6259C64.3282 13.5058 63.7851 14.0815 62.9488 14.0815ZM62.6283 13.446C63.0682 13.446 63.3398 13.1419 63.3398 12.6314C63.3398 12.1426 63.0737 11.8384 62.6283 11.8384C62.1884 11.8384 61.906 12.1209 61.906 12.5608V12.7074C61.906 13.1582 62.183 13.446 62.6283 13.446ZM65.8095 14.0815C65.1198 14.0815 64.6961 13.7665 64.6961 13.2505C64.6961 12.9898 64.8102 12.778 65.022 12.6422C65.2121 12.5173 65.4945 12.4413 65.9616 12.3924L66.8903 12.3109V12.2349C66.8903 11.9253 66.7002 11.7841 66.358 11.7841C66.0104 11.7841 65.7986 11.9308 65.766 12.1915H64.7776C64.8536 11.5778 65.4619 11.203 66.358 11.203C67.4008 11.203 67.857 11.5778 67.857 12.3816V13.2016C67.857 13.5438 67.8787 13.8153 67.9222 14H66.9717C66.95 13.8751 66.9337 13.6959 66.9337 13.5384C66.7762 13.8751 66.3526 14.0815 65.8095 14.0815ZM66.1625 13.5112C66.6079 13.5112 66.912 13.2722 66.912 12.9029V12.7509L66.206 12.8323C65.8366 12.8758 65.6846 12.9844 65.6846 13.1853C65.6846 13.3863 65.8638 13.5112 66.1625 13.5112ZM69.5996 10.0625V14H68.6383V10.0625H69.5996ZM71.3278 14.0815C70.6381 14.0815 70.2144 13.7665 70.2144 13.2505C70.2144 12.9898 70.3285 12.778 70.5403 12.6422C70.7304 12.5173 71.0128 12.4413 71.4799 12.3924L72.4086 12.3109V12.2349C72.4086 11.9253 72.2185 11.7841 71.8763 11.7841C71.5288 11.7841 71.3169 11.9308 71.2844 12.1915H70.2959C70.3719 11.5778 70.9802 11.203 71.8763 11.203C72.9191 11.203 73.3753 11.5778 73.3753 12.3816V13.2016C73.3753 13.5438 73.397 13.8153 73.4405 14H72.4901C72.4683 13.8751 72.452 13.6959 72.452 13.5384C72.2945 13.8751 71.8709 14.0815 71.3278 14.0815ZM71.6808 13.5112C72.1262 13.5112 72.4303 13.2722 72.4303 12.9029V12.7509L71.7243 12.8323C71.355 12.8758 71.2029 12.9844 71.2029 13.1853C71.2029 13.3863 71.3821 13.5112 71.6808 13.5112ZM74.1295 14V11.2845H75.0582V11.8493C75.27 11.4203 75.6502 11.1976 76.177 11.1976C76.9265 11.1976 77.3229 11.6429 77.3229 12.4902V14H76.3671V12.6151C76.3671 12.1372 76.1716 11.9091 75.7642 11.9091C75.3352 11.9091 75.0908 12.1915 75.0908 12.6911V14H74.1295ZM79.5322 14.0815C78.4949 14.0815 77.8269 13.5166 77.8269 12.6368C77.8269 11.7407 78.4732 11.203 79.5376 11.203C80.412 11.203 80.9986 11.5723 81.1289 12.2132L80.1676 12.3653C80.1025 12.0448 79.8635 11.871 79.5105 11.871C79.0814 11.871 78.8099 12.1534 78.8099 12.6205C78.8099 13.1093 79.0869 13.408 79.5159 13.408C79.8798 13.408 80.1079 13.2288 80.1731 12.9029L81.1289 13.0713C80.9986 13.6959 80.3849 14.0815 79.5322 14.0815ZM84.7515 12.6368V12.8541H82.4107C82.4433 13.2179 82.7474 13.4406 83.209 13.4406C83.5403 13.4406 83.8227 13.2994 83.9694 13.0496L84.6863 13.37C84.4039 13.8208 83.8716 14.0815 83.1765 14.0815C82.1283 14.0815 81.4983 13.5601 81.4983 12.664C81.4983 11.757 82.1337 11.203 83.1384 11.203C84.1703 11.203 84.7515 11.7298 84.7515 12.6368ZM83.8119 12.3381V12.3218C83.8065 11.9634 83.5512 11.7407 83.1276 11.7407C82.6931 11.7407 82.4378 11.9688 82.4052 12.3381H83.8119Z" fill="white"/>
</g>
<defs>
<clipPath id="clip0_1041_13052">
<rect width="113" height="103" rx="9.65517" fill="white"/>
</clipPath>
<clipPath id="clip1_1041_13052">
<rect width="113.147" height="245" fill="white" transform="translate(0.000244141)"/>
</clipPath>
<clipPath id="clip2_1041_13052">
<rect width="113.147" height="22.931" fill="white" transform="translate(0 80.069)"/>
</clipPath>
</defs>
</svg>
